<svg width="372" height="644" viewBox="0 0 372 644" fill="none" xmlns="http://www.w3.org/2000/svg">
<path d="M183.486 267.122C183.486 332.385 373.364 513.675 371.007 591.919C368.65 670.163 292.763 670.163 292.763 670.163H-164.735C-164.937 670.163 -240.624 670.058 -242.978 591.919C-245.335 513.675 -55.4577 332.385 -55.4577 267.122V91.0642H-37.0407V261.792C-37.0414 325.079 -196.392 500.879 -194.414 576.754C-192.439 652.486 -128.987 652.628 -128.75 652.629H253.655C253.838 652.628 316.594 652.517 318.546 576.754C320.501 500.879 163.025 325.079 163.025 261.792V91.0642H183.486V267.122Z" fill="#9C9C9C"/>
<path d="M149.197 91.0642V256.255C149.197 317.489 284.177 487.588 282.501 561.002C280.826 634.415 226.879 634.416 226.879 634.416H-101.219C-101.387 634.416 -155.916 634.302 -157.612 561.002C-159.311 487.588 -22.4574 317.489 -22.4568 256.255V91.0642H149.197Z" fill="#F0F0F0"/>
<path d="M150.002 254.98V256.254C150.002 317.488 286.855 487.587 285.157 561.001C283.461 634.304 228.929 634.415 228.763 634.415H-101.218C-101.371 634.415 -155.915 634.312 -157.612 561.001C-159.31 487.587 -22.4565 317.488 -22.4565 256.254V254.98H150.002Z" fill="#BE42D9"/>
<path d="M235.729 540.746C235.729 518.986 211.793 467.849 211.793 467.849H186.69C186.69 467.849 211.793 513.546 211.793 539.658C211.793 565.771 183.504 611.468 183.504 611.468H211.793C211.793 611.468 235.729 562.507 235.729 540.746Z" fill="#D9D9D9"/>
<circle cx="107.599" cy="198.824" r="16.6951" fill="#BE42D9" fill-opacity="0.43"/>
<path d="M120.296 198.62C120.296 194.58 118.669 192.549 118.669 192.549L115.282 192.753C115.282 192.753 117.243 196.272 117.003 198.769C116.762 201.266 116.024 203.729 115.336 204.989C114.648 206.249 112.152 208.58 112.152 208.58L114.82 210.167C114.82 210.167 117.003 208.58 118.074 206.914C119.145 205.247 120.296 202.66 120.296 198.62Z" fill="#FFF7F7"/>
<ellipse cx="114.152" cy="31.8725" rx="32.3547" ry="31.8725" fill="#BE42D9"/>
<path d="M138.759 31.4844C138.759 23.7716 135.606 19.8943 135.606 19.8943L129.041 20.2826C129.041 20.2826 132.843 27.0015 132.377 31.7686C131.91 36.5357 130.48 41.2377 129.147 43.6428C127.813 46.0478 122.976 50.4983 122.976 50.4983L128.147 53.5277C128.147 53.5277 132.377 50.4983 134.453 47.3166C136.528 44.1349 138.759 39.1971 138.759 31.4844Z" fill="#FFF7F7"/>
<ellipse cx="19.146" cy="223.108" rx="13.236" ry="13.6597" fill="#BE42D9" fill-opacity="0.2"/>
<path d="M29.2127 222.942C29.2127 219.636 27.923 217.974 27.923 217.974L25.2372 218.141C25.2372 218.141 26.7924 221.02 26.6017 223.063C26.411 225.106 25.8259 227.122 25.2804 228.152C24.735 229.183 22.7559 231.09 22.7559 231.09L24.8716 232.389C24.8716 232.389 26.6017 231.09 27.451 229.727C28.3002 228.363 29.2127 226.247 29.2127 222.942Z" fill="#FFF7F7"/>
<ellipse cx="30.9114" cy="127.49" rx="25.0013" ry="24.2838" fill="#BE42D9" fill-opacity="0.7"/>
<path d="M49.9261 127.194C49.9261 121.318 47.4901 118.364 47.4901 118.364L42.4169 118.66C42.4169 118.66 45.3546 123.779 44.9943 127.411C44.634 131.043 43.5288 134.625 42.4985 136.458C41.4683 138.29 37.7299 141.681 37.7299 141.681L41.7264 143.989C41.7264 143.989 44.9943 141.681 46.5984 139.257C48.2026 136.833 49.9261 133.071 49.9261 127.194Z" fill="#FFF7F7"/>
<path opacity="0.5" d="M155.216 280.709C149.776 266.565 149.776 255.685 149.776 255.685H133.455C133.455 255.685 136.719 272.005 138.895 280.709C141.071 289.413 190.032 381.895 196.56 393.863C203.089 405.832 260.754 514.634 264.018 538.57C267.282 562.507 268.37 573.387 258.578 594.059C248.785 614.732 218.321 633.228 218.321 633.228L241.169 632.14C241.169 632.14 262.93 624.524 273.81 604.939C284.69 585.355 289.042 557.067 277.074 523.338C265.106 489.609 253.137 467.849 243.345 450.441C233.553 433.032 160.656 294.854 155.216 280.709Z" fill="white"/>
<rect opacity="0.7" x="-12.3395" y="91.3936" width="54.401" height="163.203" fill="white"/>
<path d="M-75.5858 397.127C-49.4731 346.813 -7.98746 254.597 -7.98746 254.597H33.3573C33.3573 254.597 58.2388 265.731 63.8408 274.077C76.9159 293.557 66.3336 325.213 43.8991 355.517C21.4647 385.821 57.6091 419.911 43.8991 472.943C30.1892 525.974 -11.8011 482.413 -8.06215 541.126C-4.32314 599.839 20.2541 568.257 20.2541 606.135C20.2541 644.014 -43.1806 634.283 -75.5858 634.283C-107.991 634.283 -144.445 615.296 -149.43 567.947C-154.416 520.598 -101.699 447.442 -75.5858 397.127Z" fill="#7C12A0"/>
</svg>
