<svg width="65" height="65" viewBox="0 0 65 65" fill="none" xmlns="http://www.w3.org/2000/svg">
<g clip-path="url(#clip0_4158_54)">
<path d="M4.63 0.796143L9.65751 57.2376L32.2165 63.5276L54.8385 57.2146L59.87 0.796143H4.63ZM49.4255 13.7271L47.752 32.5296L47.757 32.6311L47.75 32.8646V32.8626L46.561 46.0096L46.43 47.1776L32.25 51.0996V51.1001L32.239 51.1096L18.0835 47.1656L17.125 36.2961H24.0665L24.559 41.8231L32.252 43.9081L32.25 43.9121V43.9111L39.9715 41.7966L40.7875 32.7961H24.646L24.5075 31.2746L24.192 27.7101L24.0265 25.7961H41.401L42.033 18.7961H15.57L15.4315 17.2756L15.1165 13.7101L14.9505 11.7961H49.591L49.4255 13.7271Z" fill="#1572B6"/>
</g>
<defs>
<clipPath id="clip0_4158_54">
<rect width="64.5" height="64.5925" fill="white"/>
</clipPath>
</defs>
</svg>
