<svg width="65" height="64" viewBox="0 0 65 64" fill="none" xmlns="http://www.w3.org/2000/svg">
<g clip-path="url(#clip0_4162_163)">
<path d="M62.4 26.05C60.25 24.8 57.4 24.65 55 25.35C54.7 22.75 53 20.5 51 18.9L50.2 18.25L49.5 19.05C48.15 20.6 47.75 23.2 47.95 25.2C48.1 26.65 48.55 28.15 49.45 29.35C48.75 29.75 48 30.3 47.3 30.55C45.9 31.05 44.35 31.55 42.85 31.55H39.5V24.5H33V12H25.5V18H13V24.5H6.49997V31.5H0.899971L0.799971 32.25C0.549971 35.45 0.949971 38.55 2.29997 41.5L2.84997 42.6L2.89997 42.7C6.84997 49.4 13.75 52.2 21.3 52.2C35.9 52.2 47.95 45.65 53.45 31.9C57.15 32.1 60.95 31 62.75 27.45L63.2 26.55L62.4 26.05ZM14 19.5H19V25H14V19.5ZM20.55 41.6C20.55 42.45 19.85 43.15 19 43.15C18.15 43.15 17.45 42.45 17.45 41.6C17.45 40.75 18.15 40.05 19 40.05C19.85 40.1 20.55 40.75 20.55 41.6ZM14 26H19V31.5H14V26ZM7.49997 26H13V31.5H7.49997V26ZM21.35 51.1C13.45 51.05 9.19997 48.4 5.69997 44.9C6.74997 44.95 7.74997 45 8.64997 45C9.44997 45 10.25 45 11 44.95C12.95 44.85 14.65 44.6 16.05 44.2C17.2 46.85 19.3 49.3 23.05 51.1H21.35ZM25.5 31.5H20V26H25.5V31.5ZM25.5 25H20V19.5H25.5V25ZM32 31.5H26.5V26H32V31.5ZM32 25H26.5V19.5H32V25ZM32 18.5H26.5V13H32V18.5ZM38.5 31.5H33V26H38.5V31.5ZM19.4 40.6C19.3 40.55 19.15 40.5 19 40.5C18.4 40.5 17.9 41 17.9 41.6C17.9 42.2 18.4 42.7 19 42.7C19.6 42.7 20.1 42.2 20.1 41.6C20.1 41.45 20.05 41.3 20 41.2C19.9 41.35 19.8 41.45 19.6 41.45C19.35 41.45 19.15 41.25 19.15 41C19.2 40.8 19.3 40.65 19.4 40.6Z" fill="#019BC6"/>
</g>
<defs>
<clipPath id="clip0_4162_163">
<rect width="64.5" height="64" fill="white"/>
</clipPath>
</defs>
</svg>
