<svg width="64" height="64" viewBox="0 0 64 64" fill="none" xmlns="http://www.w3.org/2000/svg">
<path d="M24.535 16.33C17.35 15.02 11.675 16.39 9.41002 20.33C7.72002 23.255 8.20502 27.135 10.58 31.28C10.6283 31.3641 10.6926 31.4378 10.7694 31.497C10.8461 31.5561 10.9338 31.5996 11.0273 31.6249C11.1209 31.6502 11.2185 31.6569 11.3146 31.6444C11.4107 31.632 11.5035 31.6008 11.5875 31.5525C11.6716 31.5043 11.7453 31.4399 11.8045 31.3632C11.8636 31.2864 11.9071 31.1988 11.9324 31.1052C11.9577 31.0116 11.9644 30.914 11.9519 30.8179C11.9395 30.7218 11.9083 30.6291 11.86 30.545C9.72002 26.81 9.30002 23.46 10.685 21.045C12.565 17.79 17.63 16.545 24.27 17.775C24.4623 17.8102 24.6607 17.7675 24.8215 17.6564C24.9823 17.5452 25.0924 17.3748 25.1275 17.1825C25.1627 16.9902 25.12 16.7919 25.0089 16.6311C24.8978 16.4702 24.7273 16.3602 24.535 16.325V16.33ZM14.315 36.305C17.5187 39.7384 21.2282 42.6621 25.315 44.975C35.735 50.975 46.815 52.6 52.315 48.87C52.4761 48.7599 52.5869 48.5904 52.623 48.3986C52.6591 48.2069 52.6176 48.0086 52.5075 47.8475C52.3975 47.6864 52.2279 47.5756 52.0361 47.5395C51.8444 47.5034 51.6461 47.5449 51.485 47.655C46.555 51 36 49.46 26.035 43.695C22.0859 41.4568 18.5014 38.6293 15.405 35.31C15.2724 35.1655 15.0878 35.0795 14.8918 35.0711C14.6959 35.0626 14.5046 35.1324 14.36 35.265C14.2155 35.3976 14.1295 35.5822 14.1211 35.7782C14.1127 35.9742 14.1824 36.1655 14.315 36.31V36.305Z" fill="#47848F"/>
<path d="M50.53 35.4049C55.235 29.8499 56.875 24.2599 54.615 20.3499C52.955 17.4699 49.44 15.9499 44.77 15.8899C44.5744 15.8899 44.3869 15.9676 44.2485 16.1059C44.1102 16.2442 44.0325 16.4318 44.0325 16.6274C44.0325 16.823 44.1102 17.0106 44.2485 17.1489C44.3869 17.2872 44.5744 17.3649 44.77 17.3649C48.97 17.4199 51.995 18.7299 53.36 21.0899C55.235 24.3399 53.77 29.3249 49.425 34.4599C49.3627 34.5338 49.3154 34.6192 49.2861 34.7113C49.2567 34.8034 49.2458 34.9004 49.2539 34.9968C49.262 35.0931 49.2891 35.1869 49.3334 35.2728C49.3778 35.3587 49.4387 35.435 49.5125 35.4974C49.5864 35.5598 49.6718 35.607 49.764 35.6363C49.8561 35.6657 49.9531 35.6766 50.0494 35.6685C50.1457 35.6604 50.2395 35.6334 50.3254 35.589C50.4113 35.5446 50.4877 35.4838 50.55 35.4099L50.53 35.4049ZM38.445 16.5749C33.8285 17.6225 29.4014 19.3765 25.32 21.7749C14.565 27.9999 7.54503 37.1449 8.50003 43.7849C8.51415 43.8834 8.54753 43.9781 8.59826 44.0637C8.64899 44.1493 8.71609 44.2241 8.79572 44.2837C8.87534 44.3434 8.96594 44.3868 9.06234 44.4114C9.15873 44.4361 9.25904 44.4415 9.35753 44.4274C9.45602 44.4133 9.55077 44.3799 9.63636 44.3292C9.72195 44.2784 9.79672 44.2113 9.85638 44.1317C9.91604 44.0521 9.95943 43.9615 9.98408 43.8651C10.0087 43.7687 10.0142 43.6684 10 43.5699C9.11503 37.6749 15.765 28.9999 26.055 23.0549C30.003 20.7264 34.2868 19.0213 38.755 17.9999C38.8496 17.9795 38.9392 17.9408 39.0188 17.8858C39.0983 17.8308 39.1663 17.7607 39.2188 17.6794C39.2712 17.5982 39.3072 17.5074 39.3245 17.4122C39.3419 17.3171 39.3404 17.2194 39.32 17.1249C39.2997 17.0303 39.2609 16.9407 39.2059 16.8612C39.1509 16.7816 39.0808 16.7136 38.9995 16.6612C38.9183 16.6087 38.8275 16.5728 38.7324 16.5554C38.6372 16.538 38.5396 16.5395 38.445 16.5599V16.5749Z" fill="#47848F"/>
<path d="M21 48.3899C23.5 55.2549 27.5 59.4999 32.025 59.4999C35.325 59.4999 38.375 57.2499 40.755 53.2899C40.8598 53.1235 40.8941 52.9223 40.8505 52.7305C40.8069 52.5388 40.6889 52.3722 40.5225 52.2674C40.3561 52.1627 40.1549 52.1283 39.9631 52.1719C39.7714 52.2155 39.6048 52.3335 39.5 52.4999C37.36 56.0599 34.735 57.9999 32.03 57.9999C28.27 57.9999 24.685 54.2299 22.41 47.8799C22.3437 47.6963 22.2072 47.5465 22.0304 47.4635C21.8537 47.3805 21.6512 47.3711 21.4675 47.4374C21.2839 47.5037 21.1341 47.6403 21.0511 47.817C20.9681 47.9938 20.9587 48.1963 21.025 48.3799L21 48.3899ZM43.5 47.0449C44.8301 42.6182 45.4891 38.017 45.455 33.3949C45.455 21.1899 41.185 10.6749 35.1 7.96991C35.0114 7.93052 34.9158 7.90897 34.8189 7.90649C34.7219 7.90401 34.6254 7.92066 34.5349 7.95549C34.4443 7.99031 34.3615 8.04262 34.2912 8.10944C34.2209 8.17626 34.1644 8.25627 34.125 8.34491C34.0455 8.52394 34.0403 8.72723 34.1106 8.91008C34.1809 9.09293 34.321 9.24035 34.5 9.31991C39.925 11.7299 44 21.7099 44 33.3949C44.0333 37.8679 43.3962 42.3207 42.11 46.6049C42.0811 46.6972 42.0707 46.7942 42.0793 46.8905C42.0879 46.9868 42.1154 47.0804 42.1602 47.1661C42.205 47.2518 42.2663 47.3278 42.3404 47.3898C42.4146 47.4517 42.5003 47.4985 42.5925 47.5274C42.6848 47.5563 42.7818 47.5667 42.8781 47.5581C42.9744 47.5495 43.068 47.522 43.1537 47.4772C43.2394 47.4324 43.3154 47.3712 43.3774 47.297C43.4394 47.2228 43.4861 47.1372 43.515 47.0449H43.5ZM57.355 46.3249C57.355 45.6277 57.1483 44.9462 56.7609 44.3665C56.3736 43.7868 55.8231 43.335 55.179 43.0682C54.5349 42.8014 53.8261 42.7316 53.1423 42.8676C52.4585 43.0037 51.8304 43.3394 51.3375 43.8324C50.8445 44.3253 50.5088 44.9534 50.3727 45.6372C50.2367 46.321 50.3065 47.0298 50.5733 47.6739C50.8401 48.318 51.292 48.8685 51.8716 49.2558C52.4513 49.6432 53.1328 49.8499 53.83 49.8499C54.2929 49.8499 54.7513 49.7587 55.179 49.5816C55.6067 49.4044 55.9952 49.1448 56.3226 48.8175C56.6499 48.4901 56.9095 48.1015 57.0867 47.6739C57.2638 47.2462 57.355 46.7878 57.355 46.3249ZM55.88 46.3249C55.88 46.7304 55.7598 47.1267 55.5345 47.4638C55.3093 47.801 54.9891 48.0637 54.6145 48.2189C54.2399 48.374 53.8277 48.4146 53.4301 48.3355C53.0324 48.2564 52.6671 48.0612 52.3805 47.7745C52.0938 47.4878 51.8985 47.1225 51.8194 46.7248C51.7403 46.3272 51.7809 45.915 51.9361 45.5404C52.0912 45.1658 52.354 44.8457 52.6911 44.6204C53.0282 44.3951 53.4246 44.2749 53.83 44.2749C54.3737 44.2749 54.8951 44.4909 55.2796 44.8753C55.664 45.2598 55.88 45.7812 55.88 46.3249ZM10.17 49.8499C10.8672 49.8499 11.5487 49.6432 12.1284 49.2558C12.7081 48.8685 13.1599 48.318 13.4267 47.6739C13.6935 47.0298 13.7633 46.321 13.6273 45.6372C13.4913 44.9534 13.1556 44.3253 12.6626 43.8324C12.1696 43.3394 11.5415 43.0037 10.8577 42.8676C10.1739 42.7316 9.46517 42.8014 8.82106 43.0682C8.17695 43.335 7.62642 43.7868 7.23909 44.3665C6.85176 44.9462 6.64502 45.6277 6.64502 46.3249C6.64502 47.2598 7.0164 48.1564 7.67747 48.8175C8.33853 49.4785 9.23513 49.8499 10.17 49.8499ZM10.17 48.3749C9.76457 48.3749 9.36822 48.2547 9.0311 48.0294C8.69398 47.8042 8.43123 47.484 8.27607 47.1094C8.12091 46.7348 8.08031 46.3226 8.15941 45.925C8.23851 45.5273 8.43375 45.162 8.72045 44.8753C9.00715 44.5886 9.37242 44.3934 9.77008 44.3143C10.1677 44.2352 10.5799 44.2758 10.9545 44.431C11.3291 44.5861 11.6493 44.8489 11.8745 45.186C12.0998 45.5231 12.22 45.9195 12.22 46.3249C12.22 46.8686 12.004 47.39 11.6196 47.7745C11.2351 48.1589 10.7137 48.3749 10.17 48.3749Z" fill="#47848F"/>
<path d="M32.025 11.5649C32.7222 11.5649 33.4037 11.3582 33.9834 10.9708C34.5631 10.5835 35.0149 10.033 35.2817 9.38885C35.5485 8.74474 35.6183 8.03598 35.4823 7.3522C35.3463 6.66842 35.0105 6.04032 34.5176 5.54734C34.0246 5.05436 33.3965 4.71864 32.7127 4.58263C32.0289 4.44661 31.3202 4.51642 30.676 4.78322C30.0319 5.05002 29.4814 5.50183 29.0941 6.08151C28.7067 6.66119 28.5 7.34272 28.5 8.03989C28.5 8.97478 28.8714 9.87138 29.5324 10.5324C30.1935 11.1935 31.0901 11.5649 32.025 11.5649ZM32.025 10.0899C31.6195 10.0899 31.2232 9.96966 30.8861 9.74441C30.549 9.51915 30.2862 9.19898 30.131 8.8244C29.9759 8.44981 29.9353 8.03762 30.0144 7.63996C30.0935 7.2423 30.2887 6.87702 30.5754 6.59033C30.8621 6.30363 31.2274 6.10838 31.6251 6.02928C32.0227 5.95018 32.4349 5.99078 32.8095 6.14594C33.1841 6.3011 33.5043 6.56385 33.7295 6.90098C33.9548 7.2381 34.075 7.63444 34.075 8.03989C34.075 8.58359 33.859 9.10501 33.4746 9.48946C33.0901 9.87391 32.5687 10.0899 32.025 10.0899ZM32.565 35.8849C32.0722 35.9952 31.5577 35.9566 31.0868 35.7742C30.6159 35.5917 30.2098 35.2735 29.92 34.86C29.6301 34.4464 29.4696 33.9561 29.4588 33.4512C29.4479 32.9463 29.5872 32.4496 29.859 32.024C30.1308 31.5983 30.5229 31.263 30.9855 31.0605C31.4481 30.858 31.9605 30.7973 32.4576 30.8863C32.9547 30.9754 33.4142 31.21 33.7778 31.5604C34.1414 31.9109 34.3928 32.3614 34.5 32.8549C34.643 33.5131 34.5199 34.2012 34.1573 34.7689C33.7948 35.3366 33.2223 35.7378 32.565 35.8849Z" fill="#47848F"/>
</svg>
