<svg width="64" height="64" viewBox="0 0 64 64" fill="none" xmlns="http://www.w3.org/2000/svg">
<path d="M63.3075 36.155L59.7905 25.3315L52.82 3.87998C52.462 2.77698 50.9 2.77698 50.542 3.87998L43.572 25.3315H20.428L13.458 3.87998C13.0995 2.77698 11.538 2.77698 11.1795 3.87998L4.21 25.332L0.6925 36.155C0.536056 36.6362 0.535972 37.1546 0.692259 37.6358C0.848547 38.1171 1.15318 38.5365 1.5625 38.834L32 60.947L62.437 38.8335C62.8462 38.536 63.1507 38.1166 63.307 37.6355C63.4632 37.1544 63.4633 36.6361 63.307 36.155" fill="#FC6D26"/>
<path d="M32 60.947L43.572 25.332H20.428L32 60.9465V60.947Z" fill="#E24329"/>
<path d="M32 60.947L20.428 25.332H4.21L32 60.9465V60.947Z" fill="#FC6D26"/>
<path d="M4.21 25.3315L0.691999 36.155C0.535514 36.6362 0.535411 37.1545 0.691706 37.6357C0.848 38.1169 1.15266 38.5362 1.562 38.8335L32 60.947L4.21 25.332V25.3315Z" fill="#FCA326"/>
<path d="M4.21 25.3315H20.428L13.458 3.87998C13.0995 2.77698 11.538 2.77698 11.1795 3.87998L4.21 25.332V25.3315Z" fill="#E24329"/>
<path d="M32 60.947L43.572 25.332H59.7905L32 60.9465V60.947Z" fill="#FC6D26"/>
<path d="M59.79 25.3315L63.3075 36.155C63.464 36.6362 63.4641 37.1545 63.3078 37.6357C63.1515 38.1169 62.8468 38.5362 62.4375 38.8335L32 60.947L59.79 25.332V25.3315Z" fill="#FCA326"/>
<path d="M59.79 25.3315H43.5725L50.5425 3.88047C50.901 2.77747 52.4625 2.77747 52.821 3.88047L59.791 25.332L59.79 25.3315Z" fill="#E24329"/>
</svg>
