<svg width="65" height="65" viewBox="0 0 65 65" fill="none" xmlns="http://www.w3.org/2000/svg">
<g clip-path="url(#clip0_4158_52)">
<path d="M9.76849 57.2342L4.76599 1.12671H59.734L54.726 57.2257L32.2165 63.4657L9.76849 57.2342Z" fill="#E44D26"/>
<path d="M32.25 58.6961L50.439 53.6531L54.7185 5.71411H32.25V58.6961Z" fill="#F16529"/>
<path d="M32.25 26.5237H23.144L22.515 19.4767H32.25V12.5957H14.9945L15.1595 14.4417L16.8505 33.4052H32.25V26.5237ZM32.25 44.3952L32.2195 44.4037L24.556 42.3337L24.0665 36.8462H17.158L18.122 47.6507L32.2185 51.5637L32.25 51.5552V44.3952Z" fill="#EBEBEB"/>
<path d="M32.226 26.5237V33.4052H40.6995L39.901 42.3297L32.226 44.4012V51.5607L46.3335 47.6507L46.437 46.4882L48.054 28.3717L48.2215 26.5237H46.3675H32.226ZM32.226 12.5957V19.4767H48.848L48.986 17.9307L49.3 14.4417L49.4645 12.5957H32.226Z" fill="white"/>
</g>
<defs>
<clipPath id="clip0_4158_52">
<rect width="64.5" height="64.5925" fill="white"/>
</clipPath>
</defs>
</svg>
