<svg width="65" height="64" viewBox="0 0 65 64" fill="none" xmlns="http://www.w3.org/2000/svg">
<g clip-path="url(#clip0_4162_92)">
<path d="M26.2905 33.9084C26.2905 33.9084 24.6485 34.8639 27.461 35.1869C30.868 35.5759 32.6095 35.5199 36.3635 34.8104C36.3635 34.8104 37.353 35.4289 38.731 35.9649C30.313 39.5714 19.679 35.7559 26.2905 33.9084ZM25.261 29.2009C25.261 29.2009 23.419 30.5654 26.2335 30.8564C29.8735 31.2319 32.747 31.2629 37.723 30.3049C37.723 30.3049 38.4095 31.0029 39.491 31.3834C29.315 34.3604 17.9805 31.6179 25.261 29.2009Z" fill="#0074BD"/>
<path d="M33.9325 21.2155C36.008 23.6045 33.3885 25.7525 33.3885 25.7525C33.3885 25.7525 38.655 23.034 36.2365 19.6285C33.977 16.454 32.2455 14.8775 41.622 9.43945C41.6225 9.43945 26.903 13.1145 33.9325 21.2155Z" fill="#EA2D2E"/>
<path d="M45.066 37.3904C45.066 37.3904 46.282 38.3929 43.727 39.1679C38.869 40.6394 23.505 41.0834 19.2375 39.2264C17.7045 38.5589 20.581 37.6329 21.4855 37.4384C22.429 37.2339 22.968 37.2714 22.968 37.2714C21.262 36.0699 11.9405 39.6309 18.2335 40.6524C35.3955 43.4339 49.517 39.3994 45.066 37.3904ZM27.081 24.3234C27.081 24.3234 19.2665 26.1799 24.314 26.8549C26.446 27.1399 30.693 27.0744 34.652 26.7424C37.8865 26.4709 41.1325 25.8904 41.1325 25.8904C41.1325 25.8904 39.993 26.3794 39.1675 26.9424C31.2305 29.0299 15.901 28.0574 20.3145 25.9234C24.046 24.1179 27.081 24.3234 27.081 24.3234ZM41.1 32.1584C49.1675 27.9674 45.437 23.9394 42.8335 24.4819C42.197 24.6149 41.911 24.7299 41.911 24.7299C41.911 24.7299 42.1485 24.3579 42.6 24.1984C47.751 22.3884 51.7115 29.5389 40.939 32.3709C40.939 32.3709 41.0625 32.2589 41.1 32.1584Z" fill="#0074BD"/>
<path d="M36.237 0.656494C36.237 0.656494 40.7045 5.12599 31.999 11.9975C25.018 17.511 30.407 20.654 31.996 24.2465C27.921 20.5695 24.932 17.3325 26.937 14.3205C29.8815 9.89949 38.039 7.75499 36.237 0.656494Z" fill="#EA2D2E"/>
<path d="M27.8745 43.5196C35.6165 44.0146 47.509 43.2441 47.7905 39.5806C47.7905 39.5806 47.2495 40.9691 41.391 42.0711C34.782 43.3151 26.6295 43.1706 21.7955 42.3726C21.7955 42.3726 22.7855 43.1926 27.8745 43.5196Z" fill="#0074BD"/>
<path d="M47.433 50.0906H47.197V49.9586H47.832V50.0906H47.597V50.7491H47.4325L47.433 50.0906ZM48.7005 50.1236H48.6975L48.4635 50.7491H48.3555L48.123 50.1236H48.1205V50.7491H47.9645V49.9586H48.193L48.4085 50.5181L48.6245 49.9586H48.8515V50.7491H48.7005V50.1236ZM26.6055 57.5186C25.8755 58.1516 25.1035 58.5076 24.41 58.5076C23.423 58.5076 22.8875 57.9146 22.8875 56.9651C22.8875 55.9376 23.4605 55.1851 25.7565 55.1851H26.605V57.5186H26.6055ZM28.621 59.7926V52.7541C28.621 50.9546 27.5945 49.7676 25.1225 49.7676C23.6795 49.7676 22.4145 50.1246 21.386 50.5786L21.682 51.8251C22.492 51.5276 23.5395 51.2516 24.5675 51.2516C25.9925 51.2516 26.605 51.8251 26.605 53.0121V53.9016H25.893C22.4325 53.9016 20.871 55.2441 20.871 57.2631C20.871 59.0026 21.9 59.9911 23.8375 59.9911C25.0825 59.9911 26.013 59.4771 26.8815 58.7246L27.0395 59.7931H28.621V59.7926ZM35.347 59.7926H32.8335L29.808 49.9481H32.0035L33.8815 55.9976L34.299 57.8151C35.247 55.1861 35.919 52.5171 36.255 49.9486H38.3905C37.819 53.1891 36.789 56.7476 35.347 59.7926ZM44.991 57.5186C44.2585 58.1516 43.486 58.5076 42.795 58.5076C41.807 58.5076 41.272 57.9146 41.272 56.9651C41.272 55.9376 41.8465 55.1851 44.14 55.1851H44.9905V57.5186H44.991ZM47.0075 59.7926V52.7541C47.0075 50.9546 45.978 49.7676 43.508 49.7676C42.0635 49.7676 40.799 50.1246 39.7705 50.5786L40.067 51.8251C40.877 51.5276 41.926 51.2516 42.954 51.2516C44.377 51.2516 44.991 51.8251 44.991 53.0121V53.9016H44.279C40.8175 53.9016 39.2565 55.2441 39.2565 57.2631C39.2565 59.0026 40.2845 59.9911 42.2215 59.9911C43.467 59.9911 44.396 59.4771 45.267 58.7246L45.426 59.7931H47.0075V59.7926ZM18.661 61.4656C18.0875 62.3051 17.1585 62.9696 16.1425 63.3441L15.148 62.1716C15.9215 61.7746 16.584 61.1341 16.8925 60.5371C17.1585 60.0056 17.269 59.3221 17.269 57.6866V46.4456H19.411V57.5321C19.411 59.7196 19.237 60.6041 18.661 61.4656Z" fill="#EA2D2E"/>
</g>
<defs>
<clipPath id="clip0_4162_92">
<rect width="64.5" height="64" fill="white"/>
</clipPath>
</defs>
</svg>
