<svg width="65" height="65" viewBox="0 0 65 65" fill="none" xmlns="http://www.w3.org/2000/svg">
<path d="M0.953999 1H63.546V63.5925H0.953999V1Z" fill="#F0DB4F"/>
<path d="M58.6656 48.8159C58.2029 45.9339 56.3236 43.5132 50.7571 41.256C48.8234 40.3674 46.6676 39.731 46.0253 38.2656C45.7972 37.4128 45.7669 36.9324 45.9112 36.4161C46.3255 34.7407 48.3253 34.2185 49.9104 34.6989C50.9312 35.041 51.8976 35.8277 52.4804 37.0827C55.2064 35.3175 55.2008 35.3291 57.1043 34.116C56.4074 33.0356 56.0355 32.537 55.5793 32.0748C53.9398 30.2435 51.7058 29.3003 48.1331 29.3725L46.272 29.6132C44.4887 30.0638 42.7891 30.9999 41.7925 32.2549C38.8021 35.6481 39.6549 41.5865 43.2937 44.0305C46.8786 46.7211 52.1448 47.3333 52.8175 49.8493C53.472 52.9296 50.5538 53.9267 47.6532 53.5725C45.5156 53.1279 44.3267 52.0414 43.0414 50.0658C40.6757 51.4349 40.6757 51.4349 38.2434 52.8337C38.8202 54.0948 39.4263 54.6655 40.3931 55.758C44.9691 60.3996 56.42 60.1715 58.4738 53.1461C58.5571 52.9049 59.1102 51.2961 58.6656 48.8159ZM35.0063 29.7444H29.0976L29.0734 45.0205C29.0734 48.2693 29.2414 51.2477 28.7131 52.1605C27.8487 53.956 25.6086 53.7335 24.5878 53.3853C23.5488 52.8746 23.0204 52.1484 22.4083 51.122C22.2403 50.8273 22.1141 50.5992 22.0717 50.5816L17.2677 53.5235C18.0665 55.1631 19.2433 56.5861 20.7506 57.5106C23.0022 58.862 26.0285 59.2763 29.1935 58.5496C31.2534 57.9496 33.0307 56.7067 33.9612 54.8149C35.3065 52.3346 35.0179 49.3326 35.0058 46.0121C35.036 40.5949 35.0063 35.1788 35.0063 29.7444Z" fill="#323330"/>
</svg>
