<svg width="65" height="64" viewBox="0 0 65 64" fill="none" xmlns="http://www.w3.org/2000/svg">
<g clip-path="url(#clip0_4162_165)">
<path d="M28.242 27.549C28.427 27.684 28.652 27.764 28.897 27.764C29.497 27.764 29.987 27.289 30.012 26.699L30.037 26.684L30.412 20.054C29.962 20.109 29.512 20.184 29.062 20.284C26.597 20.844 24.462 22.059 22.792 23.699L28.227 27.554L28.242 27.549ZM27.517 37.264C27.4536 36.9833 27.2836 36.7382 27.0429 36.5805C26.8022 36.4229 26.5096 36.3649 26.227 36.419L26.217 36.404L19.692 37.509C20.671 40.2199 22.5185 42.5314 24.947 44.084L27.477 37.974L27.457 37.949C27.542 37.739 27.572 37.504 27.517 37.264ZM25.347 32.559C25.567 32.499 25.772 32.369 25.927 32.179C26.302 31.709 26.237 31.034 25.787 30.644L25.792 30.619L20.827 26.179C19.313 28.6442 18.6621 31.5431 18.977 34.419L25.342 32.584L25.347 32.559ZM30.167 34.509L31.997 35.389L33.827 34.514L34.277 32.539L33.012 30.959H30.982L29.712 32.539L30.167 34.509ZM33.967 26.674C33.977 26.904 34.057 27.129 34.212 27.319C34.587 27.789 35.262 27.874 35.742 27.524L35.762 27.534L41.162 23.704C39.122 21.709 36.462 20.404 33.587 20.054L33.962 26.674H33.967ZM37.757 36.389C37.672 36.374 37.587 36.364 37.502 36.369C37.357 36.374 37.212 36.414 37.077 36.479C36.8181 36.6038 36.6174 36.8238 36.5168 37.093C36.4161 37.3622 36.4234 37.6599 36.537 37.924L36.527 37.934L39.082 44.104C41.547 42.534 43.387 40.189 44.352 37.484L37.772 36.369L37.757 36.389ZM32.977 39.659C32.8776 39.4767 32.7297 39.3256 32.5497 39.2223C32.3696 39.119 32.1644 39.0677 31.957 39.074C31.572 39.089 31.207 39.304 31.012 39.664H31.007L27.797 45.464C30.0953 46.2454 32.5658 46.3718 34.932 45.829C35.372 45.729 35.802 45.609 36.217 45.469L33.002 39.654H32.977V39.659Z" fill="#486BB3"/>
<path d="M62.272 38.3939L57.052 15.7289C56.9158 15.141 56.6486 14.5915 56.2702 14.1213C55.8919 13.6512 55.4122 13.2726 54.867 13.0139L33.747 2.92389C33.1361 2.63336 32.4626 2.49934 31.787 2.53389C31.2497 2.5603 30.7229 2.69285 30.237 2.92389L9.11702 13.0139C8.57275 13.2739 8.09384 13.6529 7.71566 14.1228C7.33747 14.5927 7.06967 15.1416 6.93202 15.7289L1.72702 38.3989C1.60611 38.9212 1.59252 39.4626 1.68706 39.9903C1.7816 40.518 1.98231 41.021 2.27702 41.4689C2.34702 41.5789 2.42702 41.6839 2.50702 41.7889L17.127 59.9639C17.5074 60.4355 17.9888 60.8155 18.5357 61.076C19.0827 61.3365 19.6812 61.4708 20.287 61.4689L43.732 61.4639C44.962 61.4639 46.122 60.9089 46.892 59.9589L61.507 41.7789C61.8812 41.3087 62.1443 40.76 62.2768 40.1739C62.4092 39.5878 62.4076 38.9793 62.272 38.3939ZM54.237 38.1189C54.082 38.7939 53.357 39.2039 52.607 39.0439C52.602 39.0439 52.592 39.0439 52.587 39.0389C52.577 39.0389 52.572 39.0339 52.562 39.0289C52.457 39.0039 52.327 38.9839 52.237 38.9589C51.807 38.8439 51.492 38.6689 51.102 38.5189C50.267 38.2189 49.572 37.9689 48.897 37.8689C48.552 37.8439 48.377 38.0039 48.187 38.1289C48.097 38.1089 47.812 38.0589 47.647 38.0339C46.437 41.8389 43.857 45.1389 40.362 47.1989C40.422 47.3439 40.527 47.6539 40.572 47.7089C40.492 47.9239 40.372 48.1239 40.477 48.4539C40.722 49.0889 41.117 49.7139 41.597 50.4589C41.827 50.8039 42.067 51.0689 42.277 51.4689C42.327 51.5639 42.392 51.7089 42.442 51.8089C42.767 52.5039 42.527 53.3039 41.902 53.6039C41.272 53.9089 40.492 53.5889 40.152 52.8889C40.102 52.7889 40.037 52.6589 39.997 52.5639C39.817 52.1539 39.757 51.8039 39.632 51.4039C39.347 50.5639 39.107 49.8689 38.767 49.2789C38.572 48.9939 38.337 48.9589 38.122 48.8889C38.082 48.8189 37.932 48.5439 37.852 48.4039C37.152 48.6689 36.432 48.8889 35.682 49.0589C32.402 49.8039 29.117 49.5039 26.187 48.3739L25.902 48.8939C25.687 48.9489 25.482 49.0089 25.357 49.1589C24.897 49.7089 24.712 50.5889 24.377 51.4289C24.252 51.8239 24.192 52.1789 24.012 52.5889C23.972 52.6839 23.902 52.8139 23.857 52.9089V52.9139L23.852 52.9189C23.517 53.6139 22.737 53.9339 22.107 53.6339C21.482 53.3339 21.247 52.5339 21.567 51.8389C21.617 51.7389 21.677 51.5939 21.727 51.4989C21.937 51.1039 22.172 50.8339 22.407 50.4889C22.887 49.7389 23.307 49.0689 23.552 48.4339C23.612 48.2239 23.522 47.9339 23.442 47.7189L23.672 47.1689C20.307 45.1739 17.652 41.9989 16.382 38.0639L15.832 38.1589C15.682 38.0739 15.387 37.8789 15.107 37.9039C14.432 38.0039 13.737 38.2539 12.902 38.5539C12.512 38.7039 12.202 38.8739 11.767 38.9889C11.677 39.0139 11.547 39.0389 11.442 39.0639C11.432 39.0639 11.427 39.0689 11.417 39.0739C11.412 39.0739 11.402 39.0739 11.397 39.0789C10.647 39.2389 9.92202 38.8289 9.76702 38.1539C9.61202 37.4789 10.092 36.7939 10.837 36.6139C10.842 36.6139 10.852 36.6089 10.857 36.6089C10.862 36.6089 10.862 36.6089 10.867 36.6039C10.972 36.5789 11.107 36.5439 11.207 36.5239C11.647 36.4389 12.007 36.4589 12.422 36.4289C13.307 36.3339 14.037 36.2589 14.687 36.0539C14.892 35.9689 15.092 35.6839 15.232 35.5039L15.762 35.3489C15.167 31.2389 16.172 27.2089 18.342 23.9439L17.937 23.5839C17.912 23.4239 17.877 23.0639 17.682 22.8539C17.187 22.3889 16.557 21.9989 15.802 21.5339C15.442 21.3239 15.112 21.1889 14.752 20.9189C14.677 20.8639 14.572 20.7739 14.492 20.7089C14.487 20.7039 14.477 20.6989 14.472 20.6939C13.867 20.2089 13.727 19.3739 14.162 18.8289C14.407 18.5239 14.782 18.3689 15.167 18.3839C15.467 18.3939 15.782 18.5039 16.047 18.7139C16.132 18.7839 16.252 18.8739 16.327 18.9389C16.667 19.2289 16.872 19.5189 17.157 19.8239C17.782 20.4589 18.297 20.9839 18.862 21.3639C19.157 21.5389 19.387 21.4689 19.612 21.4389C19.687 21.4939 19.927 21.6689 20.067 21.7639C22.217 19.4789 25.047 17.7889 28.327 17.0439C29.092 16.8689 29.852 16.7539 30.612 16.6939L30.642 16.1589C30.812 15.9939 30.997 15.7639 31.052 15.5039C31.107 14.8239 31.017 14.0939 30.912 13.2089C30.852 12.7989 30.757 12.4539 30.737 12.0089C30.732 11.9189 30.737 11.7889 30.742 11.6839C30.742 11.6739 30.737 11.6589 30.737 11.6489C30.737 10.8739 31.302 10.2439 32.002 10.2439C32.702 10.2439 33.267 10.8739 33.267 11.6489C33.267 11.7589 33.272 11.9089 33.272 12.0089C33.257 12.4539 33.157 12.7989 33.097 13.2089C32.992 14.0889 32.897 14.8239 32.952 15.5039C33.002 15.8439 33.202 15.9789 33.367 16.1339C33.372 16.2239 33.387 16.5289 33.397 16.6989C37.417 17.0539 41.147 18.8939 43.892 21.7689L44.372 21.4239C44.537 21.4339 44.892 21.4839 45.137 21.3389C45.702 20.9589 46.217 20.4289 46.842 19.7989C47.127 19.4939 47.337 19.2089 47.677 18.9139C47.752 18.8489 47.872 18.7589 47.957 18.6889C48.562 18.2039 49.407 18.2589 49.842 18.8039C50.277 19.3489 50.137 20.1839 49.532 20.6689C49.447 20.7389 49.337 20.8339 49.252 20.8939C48.892 21.1589 48.562 21.2939 48.202 21.5089C47.447 21.9739 46.817 22.3639 46.322 22.8289C46.087 23.0789 46.107 23.3189 46.082 23.5439C46.012 23.6089 45.767 23.8289 45.632 23.9439C46.7506 25.6084 47.5539 27.4642 48.002 29.4189C48.462 31.4139 48.532 33.4039 48.267 35.3189L48.777 35.4689C48.867 35.5989 49.057 35.9139 49.322 36.0189C49.972 36.2239 50.702 36.2989 51.587 36.3939C52.002 36.4289 52.362 36.4089 52.802 36.4889C52.907 36.5089 53.062 36.5489 53.167 36.5739C53.917 36.7589 54.392 37.4439 54.237 38.1189Z" fill="#486BB3"/>
<path d="M43.137 26.179L38.197 30.599L38.202 30.614C38.032 30.764 37.902 30.964 37.847 31.204C37.712 31.789 38.067 32.369 38.637 32.529L38.642 32.554L45.037 34.394C45.172 33.014 45.092 31.584 44.762 30.154C44.432 28.709 43.877 27.374 43.137 26.179Z" fill="#486BB3"/>
</g>
<defs>
<clipPath id="clip0_4162_165">
<rect width="64.5" height="64" fill="white"/>
</clipPath>
</defs>
</svg>
