<svg width="65" height="64" viewBox="0 0 65 64" fill="none" xmlns="http://www.w3.org/2000/svg">
<g clip-path="url(#clip0_4162_83)">
<path fill-rule="evenodd" clip-rule="evenodd" d="M45.2455 28.6411C45.0605 26.2461 44.4975 23.9366 43.7145 21.6741C42.0925 16.6221 39.4895 12.1511 35.823 8.30409C34.896 7.33109 33.865 6.43959 33.2185 5.22859C32.8095 4.46259 32.42 3.68609 32.0215 2.91409L31.769 2.27759C31.7265 2.42359 31.6995 2.47559 31.698 2.52809C31.6655 3.78659 30.9525 4.64009 30.0645 5.43659C29.066 6.33309 28.1365 7.30609 27.177 8.24559L24.2265 12.1271C23.4305 13.5896 22.6355 15.0521 21.8405 16.5146L20.2455 20.8231L20.1975 20.8901C19.3195 23.7741 18.8865 26.7391 18.6735 29.7341C18.5935 30.8596 18.6845 32.0016 18.748 33.1331C18.8385 34.7506 19.1195 36.3406 19.541 37.9056C21.072 43.5916 24.179 48.3081 28.4265 52.3151C29.216 53.0596 30.026 53.7366 30.85 54.4451C30.991 53.9626 31.1035 53.4801 31.2315 52.9976C31.3595 52.5171 31.489 52.0391 31.5755 51.5571C31.4885 52.0391 31.391 52.5171 31.2945 52.9976L30.8815 54.4451L31.2505 55.6956L31.5925 57.6376L31.7555 59.6641C31.754 60.0756 31.7375 60.4881 31.7625 60.8991C31.7685 61.0041 31.9065 61.1011 31.9835 61.2021L32.6715 61.4436L33.3885 61.7226L33.2655 59.9211L33.26 58.1471L33.5075 55.4446L33.687 54.8561L34.2005 53.9461C34.8345 53.4361 35.515 52.9731 36.0925 52.4056C37.1375 51.3786 38.18 50.3386 39.115 49.2141C40.332 47.7566 41.3711 46.1593 42.2105 44.4561C42.7715 43.3141 43.2995 42.1491 43.7365 40.9556C44.1215 39.9036 44.36 38.7981 44.6635 37.7161C44.6905 37.6381 44.7265 37.5616 44.7435 37.4821C45.3705 34.5616 45.476 31.6116 45.2455 28.6411ZM33.446 53.3286L33.0435 52.4471L33.446 53.3286L34.0375 53.8336L33.446 53.3286Z" fill="#4FAA41"/>
</g>
<defs>
<clipPath id="clip0_4162_83">
<rect width="64.5" height="64" fill="white"/>
</clipPath>
</defs>
</svg>
