<svg width="65" height="64" viewBox="0 0 65 64" fill="none" xmlns="http://www.w3.org/2000/svg">
<g clip-path="url(#clip0_4162_48)">
<path d="M37.7 0.149902C37.25 0.149902 36.8 0.249902 36.4 0.399902C37.25 0.949902 37.7 1.6999 37.95 2.5499C37.95 2.6499 38 2.7499 38 2.8499C38 2.9499 38.05 3.0499 38.05 3.1499C38.1 4.5999 37.65 4.7999 37.35 5.6499C36.85 6.7499 37 7.9499 37.6 8.8999C37.65 8.9999 37.7 9.1499 37.8 9.2499C37.15 5.0499 40.65 4.4499 41.3 3.1499C41.35 1.9999 40.4 1.2499 39.65 0.699902C38.9 0.249902 38.3 0.149902 37.7 0.149902ZM42.95 1.0499C42.9 1.4499 42.95 1.3499 42.9 1.5499C42.9 1.6999 42.9 1.8499 42.85 1.9999C42.8 2.1499 42.8 2.2499 42.75 2.3999C42.7 2.5499 42.65 2.6499 42.6 2.7999C42.55 2.8999 42.5 2.9999 42.45 3.1499C42.4 3.1999 42.35 3.2999 42.3 3.3499C42.25 3.3999 42.25 3.4499 42.2 3.4999C42.1 3.5999 42.05 3.7499 41.95 3.8499L41.65 4.1499C41.55 4.2499 41.45 4.3499 41.35 4.3999C41 4.6499 40.6 4.8499 40.25 5.0999C40.15 5.1999 40 5.2499 39.9 5.3499C39.8 5.4499 39.7 5.4999 39.6 5.5999L39.3 5.8999C39.2 5.9999 39.1 6.0999 39.05 6.2499C38.95 6.3499 38.9 6.4999 38.8 6.5999C38.75 6.7499 38.7 6.8499 38.6 6.9999C38.55 7.1499 38.5 7.2499 38.45 7.3999C38.4 7.5499 38.35 7.6999 38.35 7.7999C38.35 7.8499 38.35 7.9499 38.3 7.9999C38.3 8.0499 38.3 8.1499 38.25 8.1999V8.8999C38.25 9.0499 38.25 9.1499 38.3 9.2999C38.3 9.4499 38.35 9.5499 38.4 9.6999C38.45 9.8499 38.5 9.9499 38.55 10.0999C38.6 10.1999 38.65 10.2499 38.65 10.3499L34.85 8.8999C34.2 8.6999 33.6 8.5499 32.95 8.3999C32.6 8.2999 32.25 8.2499 31.9 8.1499C30.9 7.9499 29.9 7.7999 28.9 7.6999H28.8C27.8 7.5999 26.85 7.5499 25.85 7.5499C25.1 7.5499 24.4 7.5999 23.7 7.6499C22.7 7.6999 21.7 7.8499 20.7 7.9999L19.95 8.1499C19.45 8.2499 18.95 8.3499 18.45 8.4999C18.2 8.5499 17.95 8.6499 17.7 8.6999C17.45 8.7999 17.2 8.8999 17 8.9999C16.8 9.0999 16.65 9.1499 16.45 9.2499C16.4 9.2499 16.4 9.2499 16.35 9.2999C16.2 9.3999 16.05 9.4499 15.9 9.5499C15.85 9.5499 15.8 9.5999 15.8 9.5999C15.6 9.6999 15.45 9.7999 15.3 9.8499C15.2 9.8999 15.05 9.9499 14.95 9.9999C14.9 10.0499 14.85 10.0499 14.8 10.0999C14.65 10.1999 14.5 10.2499 14.35 10.3499C14.2 10.4499 14.05 10.4999 13.95 10.5999C13.85 10.6999 13.7 10.7499 13.6 10.8499C13.6 10.8499 13.55 10.8499 13.55 10.8999C13.45 10.9499 13.35 11.0499 13.25 11.1499L13.2 11.1999C13.1 11.2499 13.05 11.3499 12.95 11.3999C12.9 11.3999 12.9 11.4499 12.85 11.4499C12.75 11.4999 12.7 11.5999 12.6 11.6499C12.6 11.6999 12.55 11.6999 12.55 11.6999L12.25 11.9999L12.2 12.0499L11.9 12.3499C11.9 12.3499 11.9 12.3999 11.85 12.3999L11.6 12.6499C11.55 12.6999 11.5 12.6999 11.5 12.7499L11.2 13.0499C11.2 13.0999 11.15 13.0999 11.15 13.1499L10.75 13.5499L10.7 13.5999C10.45 13.8999 10.15 14.1499 9.85 14.3999C9.55 14.6499 9.25 14.8999 8.9 15.1499C8.55 15.3999 8.25 15.5999 7.9 15.7999C7.55 15.9999 7.2 16.1499 6.85 16.2999C6.5 16.4499 6.15 16.5999 5.8 16.6999C5.1 16.8499 4.4 17.1499 3.8 17.1999C3.8 16.9499 3.65 16.9999 3.5 16.9999C3.35 17.0499 3.2 17.0499 3.1 17.0999C2.95 17.1499 2.85 17.1999 2.7 17.2499C2.55 17.2999 2.45 17.3499 2.3 17.4499C2.2 17.5499 2.05 17.5999 1.95 17.6999C1.85 17.7999 1.7 17.8999 1.6 17.9999C1.5 18.0999 1.35 18.1999 1.25 18.2999C1.15 18.3999 1.05 18.4999 0.949997 18.6499C0.849997 18.7999 0.749997 18.8999 0.699997 19.0499C0.599997 19.1499 0.549997 19.2999 0.449997 19.4499C0.399997 19.5999 0.299997 19.7499 0.249997 19.8999L0.099997 20.3499C0.049997 20.4999 0.0499969 20.5999 -3.05101e-06 20.7499V20.7999C-0.0500031 20.9499 -0.0500031 21.1499 -0.0500031 21.2499C-3.05101e-06 21.1999 -3.05101e-06 21.2999 -3.05101e-06 21.3999V21.5999C-3.05101e-06 21.6999 0.0499969 21.7999 0.0499969 21.8999C0.099997 21.9999 0.099997 22.0999 0.149997 22.1999C0.199997 22.2999 0.249997 22.3999 0.349997 22.4999C0.399997 22.5999 0.499997 22.6999 0.549997 22.7999C0.649997 22.8999 0.749997 22.9999 0.849997 23.0499C0.949997 23.1499 1.05 23.2499 1.15 23.2999C1.55 23.6499 1.65 23.7499 2.15 24.0499C2.25 24.0999 2.3 24.1499 2.4 24.1999H2.45V24.2999C2.45 24.4499 2.5 24.5499 2.55 24.6999C2.6 24.8499 2.65 24.9999 2.7 25.0999L2.85 25.3999C2.85 25.4499 2.9 25.4499 2.9 25.4999C2.95 25.6499 3.05 25.7499 3.1 25.8499C3.2 25.9499 3.25 26.0999 3.35 26.1999L3.65 26.4999L3.95 26.7999H4C4.1 26.8999 4.2 26.9499 4.3 27.0499C4.4 27.1499 4.55 27.1999 4.65 27.2499C4.75 27.2999 4.9 27.3999 5.05 27.4499C5.15 27.4999 5.25 27.5499 5.4 27.5499C5.4 27.5499 5.45 27.5499 5.45 27.5999C5.5 27.5999 5.6 27.6499 5.65 27.6499C5.6 28.5499 5.6 29.3999 5.7 29.6999C5.85 30.0499 6.6 28.9999 7.3 27.8499C7.2 28.9999 7.15 30.3499 7.3 30.7499C7.5 31.1499 8.45 29.8499 9.35 28.4499C21.05 25.7499 31.75 33.8499 32.9 45.2999C32.7 43.4999 30.5 42.4999 29.45 42.7499C28.95 43.9499 28.1 45.5499 26.75 46.4999C26.85 45.3999 26.8 44.2999 26.6 43.1999C26.25 44.6999 25.55 46.1499 24.55 47.3499C23 47.4499 21.4 46.6999 20.6 45.5499C20.55 45.4999 20.5 45.3999 20.45 45.3499C20.4 45.2499 20.35 45.0999 20.3 44.9999C20.25 44.8999 20.2 44.7499 20.2 44.6499V44.2999V44.0499C20.2 43.9499 20.25 43.7999 20.3 43.6999C20.35 43.5999 20.35 43.4499 20.4 43.3499C20.45 43.2499 20.5 43.0999 20.6 42.9999C20.9 42.1999 20.9 41.5499 20.35 41.1999L20.05 41.0499C20 41.0499 19.9 40.9999 19.85 40.9999C19.8 40.9999 19.75 40.9499 19.7 40.9499C19.6 40.8999 19.45 40.8999 19.35 40.8499C19.25 40.7999 19.1 40.7999 19 40.7999C18.9 40.7999 18.75 40.7499 18.65 40.7499H18.4C18.25 40.7499 18.15 40.7499 18.05 40.7999C17.95 40.7999 17.8 40.8499 17.7 40.8499C17.6 40.8999 17.45 40.8999 17.35 40.9499C17.25 40.9999 17.15 41.0499 17 41.0999L16.7 41.2499C12.85 43.7499 15.15 49.6499 17.75 51.3499C16.75 51.5499 15.75 51.7499 15.45 51.9499L15.4 51.9999C16.1 52.4499 16.85 52.7999 17.65 53.0999C18.7 53.4499 19.85 53.7499 20.35 53.8999C21.7 54.1999 23.1 54.2999 24.5 54.1999C31.8 53.6999 37.8 48.0999 38.9 40.7999C38.95 40.9499 38.95 41.0999 39 41.2499C39.05 41.5499 39.1 41.8499 39.15 42.1999C39.2 42.3499 39.2 42.4999 39.2 42.6499V42.6999C39.2 42.8499 39.25 42.9999 39.25 43.1499C39.25 43.3499 39.3 43.4999 39.3 43.6999V45.7999C39.3 45.9499 39.25 46.0499 39.25 46.1999V46.3499C39.25 46.4999 39.2 46.6499 39.2 46.8499C39.15 46.9999 39.15 47.1499 39.1 47.2999V47.3499C39.05 47.4999 39.05 47.6499 39 47.7999V47.8499C38.95 47.9999 38.95 48.1499 38.9 48.2999V48.3499L38.75 48.7999V48.8499C38.7 48.9999 38.65 49.1999 38.6 49.3499C38.55 49.4999 38.5 49.6499 38.4 49.8499C38.35 49.9999 38.3 50.1999 38.2 50.3499C38.15 50.4999 38.05 50.6499 38 50.8499C37.95 50.9999 37.85 51.1499 37.8 51.2999C37.8 51.3499 37.75 51.3999 37.75 51.3999C37.75 51.3999 37.75 51.4499 37.7 51.4499C36.65 53.5999 35.05 55.4999 33.05 56.9999C32.9 57.0999 32.8 57.1999 32.65 57.2999C32.6 57.3499 32.55 57.3499 32.55 57.3999C32.45 57.4999 32.3 57.5499 32.2 57.6499L32.25 57.7499C32.5 57.6999 32.7 57.6999 32.95 57.6499C33.4 57.5999 33.8 57.4999 34.25 57.3999C34.35 57.3999 34.5 57.3499 34.6 57.2999C34.7 57.2999 34.75 57.2499 34.85 57.2499C34.95 57.2499 35.1 57.1999 35.2 57.1999C35.3 57.1499 35.4 57.1499 35.5 57.0999C37.15 56.6999 38.75 56.1499 40.3 55.4999C37.65 59.0999 34.15 61.9999 30.05 63.8999C31.95 63.7499 33.85 63.4499 35.7 62.8999C42.35 60.9499 47.95 56.4499 51.3 50.3999C50.6 54.1999 49.1 57.8499 46.85 61.0499C48.45 59.9999 49.9 58.7499 51.25 57.3999C54.95 53.5499 57.4 48.5999 58.2 43.3499C58.75 45.9499 58.95 48.6499 58.7 51.2999C70.65 34.6499 59.7 17.3999 55.1 12.8499C55.1 12.7999 55.05 12.7999 55.05 12.7499C55.05 12.9499 55.05 13.1499 55 13.3499C54.95 13.7499 54.9 14.0999 54.85 14.4499C54.75 14.7999 54.65 15.1999 54.55 15.5499C54.45 15.8999 54.3 16.2499 54.15 16.5999C54 16.9499 53.85 17.2999 53.65 17.5999C53.45 17.8999 53.25 18.2499 53.05 18.5499C52.85 18.8499 52.6 19.1499 52.35 19.4499C52.1 19.7499 51.85 19.9999 51.55 20.2999C51.4 20.4499 51.25 20.5999 51.05 20.6999C50.9 20.7999 50.8 20.8999 50.65 21.0499C50.35 21.2999 50.05 21.4999 49.7 21.6999C49.4 21.8999 49.05 22.0999 48.7 22.2499L47.65 22.6999C47.3 22.8499 46.95 22.9499 46.6 23.0499C46.25 23.1499 45.85 23.2499 45.5 23.2999C45.1 23.3499 44.75 23.3999 44.4 23.4499C44.15 23.4499 43.85 23.4999 43.6 23.4999C43.2 23.4999 42.85 23.4499 42.5 23.4499C42.1 23.3999 41.75 23.3499 41.4 23.2999C41 23.2499 40.65 23.1499 40.3 22.9999C40.65 22.9499 41.05 22.9499 41.4 22.8499C41.8 22.7999 42.15 22.6999 42.5 22.5999C42.85 22.4999 43.25 22.3999 43.55 22.2499L44.6 21.7999C44.95 21.6499 45.25 21.4499 45.6 21.2499C45.9 21.0499 46.25 20.7999 46.55 20.5999C46.85 20.3499 47.15 20.0999 47.4 19.8499C47.7 19.5999 47.95 19.2999 48.2 19.0499C48.45 18.7499 48.7 18.4499 48.9 18.1499C48.95 18.0999 48.95 18.0499 49 17.9999C49.15 17.7499 49.35 17.4499 49.5 17.1999C49.7 16.8499 49.85 16.5499 50 16.1999C50.15 15.8499 50.3 15.4999 50.4 15.1499L50.7 14.0999C50.75 13.6999 50.85 13.3499 50.85 12.9999C50.9 12.5999 50.9 12.2499 50.9 11.8999C50.9 11.6499 50.9 11.3499 50.85 11.0999C50.8 10.6999 50.75 10.3499 50.7 9.9999C50.65 9.5999 50.55 9.2499 50.45 8.8999C50.35 8.5499 50.2 8.1999 50.1 7.8499C49.95 7.4999 49.8 7.1499 49.65 6.8499C49.45 6.4999 49.3 6.1999 49.1 5.8499C48.9 5.5499 48.65 5.2499 48.45 4.9499C48.2 4.6499 47.95 4.3999 47.7 4.0999C47.55 3.9499 47.4 3.7999 47.25 3.6999C46.5 3.0999 45.75 2.5999 44.95 2.0999C44.85 2.0499 44.75 1.9999 44.6 1.9499C43.95 1.3999 43.45 1.2499 42.95 1.0499Z" fill="#DF234F"/>
</g>
<defs>
<clipPath id="clip0_4162_48">
<rect width="64.5" height="64" fill="white"/>
</clipPath>
</defs>
</svg>
