<svg width="65" height="64" viewBox="0 0 65 64" fill="none" xmlns="http://www.w3.org/2000/svg">
<g clip-path="url(#clip0_4162_47)">
<path d="M57.4125 40.3744C57.2675 40.3744 57.1235 40.3364 56.9965 40.2624L55.6715 39.4784C55.4735 39.3679 55.57 39.3284 55.6355 39.3059C55.8995 39.2139 55.953 39.1924 56.2345 39.0334C56.264 39.0169 56.3025 39.0229 56.333 39.0409L57.3505 39.6454C57.3694 39.6555 57.3905 39.6608 57.412 39.6608C57.4335 39.6608 57.4546 39.6555 57.4735 39.6454L61.442 37.3549C61.4607 37.3439 61.4761 37.3281 61.4868 37.3093C61.4976 37.2904 61.5031 37.2691 61.503 37.2474V32.6674C61.503 32.6454 61.4974 32.6238 61.4866 32.6046C61.4758 32.5854 61.4603 32.5693 61.4415 32.5579L57.4745 30.2694C57.4557 30.2591 57.4347 30.2536 57.4132 30.2536C57.3918 30.2536 57.3708 30.2591 57.352 30.2694L53.3855 32.5584C53.3667 32.5698 53.3511 32.5857 53.3401 32.6048C53.3292 32.6239 53.3233 32.6454 53.323 32.6674V37.2474C53.323 37.2914 53.3475 37.3329 53.3855 37.3534L54.4725 37.9819C55.0625 38.2764 55.424 37.9294 55.424 37.5804V33.0579C55.424 32.9944 55.4755 32.9439 55.539 32.9439H56.0425C56.105 32.9439 56.157 32.9944 56.157 33.0579V37.5804C56.157 38.3674 55.7285 38.8189 54.982 38.8189C54.7525 38.8189 54.572 38.8189 54.068 38.5709L53.0275 37.9719C52.9009 37.8981 52.7959 37.7924 52.7229 37.6654C52.6499 37.5384 52.6115 37.3944 52.6115 37.2479V32.6679C52.6115 32.3704 52.77 32.0929 53.0275 31.9449L56.996 29.6514C57.1239 29.5818 57.2672 29.5453 57.4128 29.5453C57.5583 29.5453 57.7016 29.5818 57.8295 29.6514L61.798 31.9449C62.055 32.0934 62.2145 32.3709 62.2145 32.6679V37.2479C62.2143 37.3944 62.1757 37.5383 62.1026 37.6653C62.0296 37.7923 61.9245 37.898 61.798 37.9719L57.8295 40.2629C57.7028 40.3364 57.5589 40.3749 57.4125 40.3744ZM58.639 37.2189C56.9015 37.2189 56.538 36.4214 56.538 35.7529C56.5381 35.7225 56.5503 35.6933 56.5719 35.6719C56.5934 35.6504 56.6226 35.6384 56.653 35.6384H57.166C57.1935 35.6383 57.22 35.648 57.2409 35.6658C57.2618 35.6836 57.2757 35.7083 57.28 35.7354C57.357 36.2579 57.5885 36.5214 58.639 36.5214C59.4745 36.5214 59.8305 36.3324 59.8305 35.8884C59.8305 35.6324 59.7295 35.4429 58.4305 35.3154C57.3445 35.2079 56.673 34.9684 56.673 34.0989C56.673 33.2984 57.348 32.8204 58.479 32.8204C59.7505 32.8204 60.3795 33.2619 60.459 34.2089C60.4602 34.2248 60.4582 34.2408 60.4531 34.256C60.4479 34.2711 60.4397 34.285 60.429 34.2969C60.4181 34.3083 60.4051 34.3173 60.3907 34.3236C60.3763 34.3299 60.3607 34.3332 60.345 34.3334H59.8295C59.8035 34.3334 59.7783 34.3246 59.758 34.3083C59.7377 34.292 59.7236 34.2693 59.718 34.2439C59.594 33.6939 59.294 33.5184 58.4785 33.5184C57.566 33.5184 57.46 33.8369 57.46 34.0744C57.46 34.3629 57.585 34.4469 58.8175 34.6099C60.037 34.7714 60.6165 34.9994 60.6165 35.8569C60.617 36.7234 59.896 37.2189 58.639 37.2189ZM49.241 34.2149C49.3975 34.1234 49.494 33.9564 49.494 33.7749V32.5979C49.494 32.4169 49.398 32.2499 49.241 32.1584L45.059 29.7304C44.9817 29.6854 44.8938 29.6616 44.8044 29.6615C44.7149 29.6613 44.627 29.6847 44.5495 29.7294L40.3415 32.1589C40.2643 32.2036 40.2003 32.2677 40.1557 32.3449C40.1111 32.4221 40.0876 32.5097 40.0875 32.5989V37.4569C40.0875 37.6394 40.1855 37.8084 40.3445 37.8989L44.526 40.2814C44.68 40.3699 44.869 40.3704 45.0245 40.2844L47.5535 38.8784C47.5929 38.8565 47.6257 38.8246 47.6487 38.7859C47.6717 38.7472 47.6839 38.703 47.6842 38.658C47.6846 38.613 47.6729 38.5687 47.6504 38.5297C47.628 38.4906 47.5956 38.4583 47.5565 38.4359L43.3225 36.0059C43.2837 35.9838 43.2514 35.9518 43.2289 35.9131C43.2064 35.8745 43.1945 35.8306 43.1945 35.7859V34.2629C43.1945 34.1719 43.243 34.0884 43.3215 34.0434L44.64 33.2834C44.6785 33.261 44.7222 33.2493 44.7668 33.2493C44.8113 33.2493 44.855 33.261 44.8935 33.2834L46.212 34.0434C46.2507 34.0655 46.2828 34.0975 46.3052 34.136C46.3276 34.1746 46.3394 34.2183 46.3395 34.2629V35.4609C46.3392 35.5057 46.3509 35.5497 46.3732 35.5886C46.3955 35.6274 46.4277 35.6597 46.4665 35.682C46.5053 35.7044 46.5494 35.7161 46.5941 35.7159C46.6389 35.7157 46.6829 35.7036 46.7215 35.6809L49.241 34.2149ZM44.742 33.9869C44.7569 33.9786 44.7737 33.9742 44.7907 33.9742C44.8078 33.9742 44.8246 33.9786 44.8395 33.9869L45.647 34.4534C45.677 34.4709 45.6955 34.5034 45.6955 34.5379V35.4704C45.6955 35.5054 45.677 35.5374 45.647 35.5549L44.8395 36.0209C44.8247 36.0295 44.8079 36.034 44.7907 36.034C44.7736 36.034 44.7568 36.0295 44.742 36.0209L43.935 35.5549C43.9201 35.5464 43.9077 35.5341 43.8991 35.5193C43.8905 35.5044 43.886 35.4875 43.886 35.4704V34.5379C43.886 34.5034 43.9045 34.4709 43.935 34.4534L44.742 33.9869ZM33.7915 35.9269C33.7915 35.9719 33.7675 36.0139 33.728 36.0369L32.283 36.8699C32.2637 36.8812 32.2418 36.8871 32.2195 36.8871C32.1972 36.8871 32.1753 36.8812 32.156 36.8699L30.711 36.0369C30.6917 36.0257 30.6757 36.0097 30.6646 35.9904C30.6534 35.9711 30.6475 35.9492 30.6475 35.9269V34.2579C30.6475 34.2129 30.672 34.1704 30.711 34.1474L32.156 33.3134C32.1753 33.3018 32.1973 33.2957 32.2197 33.2957C32.2422 33.2957 32.2642 33.3018 32.2835 33.3134L33.729 34.1474C33.7482 34.1588 33.764 34.175 33.7751 34.1943C33.7861 34.2137 33.7919 34.2356 33.792 34.2579V35.9269H33.7915ZM34.182 23.5689C34.1433 23.5477 34.0997 23.5369 34.0555 23.5376C34.0114 23.5383 33.9682 23.5504 33.9301 23.5728C33.892 23.5951 33.8604 23.627 33.8383 23.6652C33.8162 23.7034 33.8044 23.7467 33.804 23.7909V30.2484C33.8039 30.2795 33.7956 30.3101 33.7801 30.3371C33.7646 30.3641 33.7423 30.3866 33.7155 30.4024C33.6884 30.4179 33.6577 30.426 33.6265 30.426C33.5953 30.426 33.5646 30.4179 33.5375 30.4024L32.4835 29.7949C32.4063 29.7504 32.3188 29.727 32.2297 29.727C32.1407 29.727 32.0532 29.7504 31.976 29.7949L27.767 32.2239C27.6897 32.2685 27.6254 32.3327 27.5808 32.4101C27.5361 32.4874 27.5126 32.5751 27.5125 32.6644V37.5239C27.5125 37.7054 27.6095 37.8729 27.7665 37.9644L31.9755 40.3949C32.1325 40.4859 32.3265 40.4859 32.484 40.3949L36.694 37.9644C36.7712 37.9196 36.8352 37.8553 36.8798 37.778C36.9244 37.7008 36.9479 37.6131 36.948 37.5239V25.4104C36.948 25.2264 36.848 25.0564 36.6875 24.9664L34.182 23.5689ZM19.369 29.7034C19.4462 29.6587 19.5338 29.6352 19.623 29.6352C19.7122 29.6352 19.7998 29.6587 19.877 29.7034L24.086 32.1319C24.243 32.2229 24.34 32.3909 24.34 32.5724V37.4334C24.34 37.6149 24.243 37.7829 24.086 37.8739L19.8775 40.3044C19.8001 40.3489 19.7125 40.3723 19.6232 40.3723C19.534 40.3723 19.4464 40.3489 19.369 40.3044L15.1615 37.8739C15.0843 37.8291 15.0203 37.7648 14.9757 37.6875C14.9311 37.6103 14.9076 37.5226 14.9075 37.4334V32.5719C14.9075 32.3909 15.0045 32.2229 15.1615 32.1319L19.369 29.7034ZM11.715 32.5319C11.715 32.3489 11.619 32.1809 11.461 32.0904L7.2535 29.6689C7.18284 29.6279 7.10314 29.6051 7.0215 29.6024H6.978C6.89638 29.6051 6.81669 29.628 6.746 29.6689L2.538 32.0904C2.46059 32.1352 2.39632 32.1996 2.35165 32.2771C2.30698 32.3546 2.28348 32.4424 2.2835 32.5319L2.2925 39.0519C2.2925 39.1429 2.34 39.2274 2.4195 39.2714C2.45757 39.2945 2.50123 39.3067 2.54575 39.3067C2.59027 39.3067 2.63393 39.2945 2.672 39.2714L5.172 37.8394C5.33 37.7454 5.4265 37.5799 5.4265 37.3984V34.3524C5.4265 34.1704 5.5225 34.0029 5.68 33.9119L6.745 33.2989C6.82198 33.2536 6.90972 33.23 6.999 33.2304C7.086 33.2304 7.175 33.2524 7.2525 33.2989L8.3165 33.9119C8.474 34.0029 8.571 34.1704 8.571 34.3524V37.3984C8.571 37.5799 8.6685 37.7464 8.8255 37.8394L11.3255 39.2714C11.3641 39.2934 11.4077 39.3049 11.4521 39.3048C11.4965 39.3047 11.5401 39.293 11.5785 39.2708C11.617 39.2486 11.649 39.2167 11.6712 39.1783C11.6935 39.1399 11.7053 39.0963 11.7055 39.0519L11.715 32.5319Z" fill="#83CD29"/>
</g>
<defs>
<clipPath id="clip0_4162_47">
<rect width="64.5" height="64" fill="white"/>
</clipPath>
</defs>
</svg>
