<svg width="65" height="64" viewBox="0 0 65 64" fill="none" xmlns="http://www.w3.org/2000/svg">
<g clip-path="url(#clip0_4162_106)">
<path d="M31.6955 6.12393C29.5845 6.13393 27.5695 6.31343 25.7955 6.62743C20.5705 7.55043 19.6225 9.48243 19.6225 13.0459V17.7514H31.969V19.3199H14.9885C11.4005 19.3199 8.25848 21.4764 7.27548 25.5804C6.14148 30.2829 6.09148 33.2179 7.27548 38.1284C8.15298 41.7839 10.249 44.3879 13.8375 44.3879H18.083V38.7469C18.083 34.6714 21.6085 31.0769 25.796 31.0769H38.1285C41.5615 31.0769 44.3015 28.2499 44.3015 24.8029V13.0464C44.3015 9.69993 41.4785 7.18643 38.1285 6.62793C36.0065 6.27493 33.806 6.11443 31.6955 6.12393ZM25.0185 9.90843C26.2935 9.90843 27.3355 10.9669 27.3355 12.2689C27.3355 13.5654 26.294 14.6139 25.0185 14.6139C23.7385 14.6139 22.702 13.5654 22.702 12.2689C22.7015 10.9669 23.7385 9.90843 25.0185 9.90843Z" fill="url(#paint0_linear_4162_106)"/>
<path d="M45.841 19.3201V24.8031C45.841 29.0531 42.237 32.6306 38.128 32.6306H25.7955C22.4175 32.6306 19.6225 35.5221 19.6225 38.9051V50.6626C19.6225 54.0081 22.5315 55.9766 25.7955 56.9361C29.7035 58.0846 33.4515 58.2926 38.128 56.9361C41.236 56.0356 44.301 54.2246 44.301 50.6626V45.9566H31.969V44.3876H50.475C54.063 44.3876 55.401 41.8851 56.649 38.1281C57.938 34.2606 57.8825 30.5411 56.649 25.5801C55.762 22.0076 54.0685 19.3196 50.475 19.3196H45.841V19.3201ZM38.9045 49.0936C40.185 49.0936 41.2215 50.1421 41.2215 51.4396C41.2215 52.7406 40.1845 53.7991 38.9045 53.7991C37.6295 53.7991 36.588 52.7406 36.588 51.4396C36.588 50.1421 37.6295 49.0936 38.9045 49.0936Z" fill="url(#paint1_linear_4162_106)"/>
<path opacity="0.444" d="M48.6545 59.7986C48.6545 61.5701 41.2465 63.0066 32.109 63.0066C22.971 63.0066 15.563 61.5701 15.563 59.7986C15.563 58.0266 22.9705 56.5901 32.109 56.5901C41.2465 56.5901 48.6545 58.0261 48.6545 59.7986Z" fill="url(#paint2_radial_4162_106)"/>
</g>
<defs>
<linearGradient id="paint0_linear_4162_106" x1="5.16842" y1="7.59525" x2="33.6453" y2="31.8802" gradientUnits="userSpaceOnUse">
<stop stop-color="#5A9FD4"/>
<stop offset="1" stop-color="#306998"/>
</linearGradient>
<linearGradient id="paint1_linear_4162_106" x1="44.3594" y1="46.9763" x2="34.1472" y2="32.6552" gradientUnits="userSpaceOnUse">
<stop stop-color="#FFD43B"/>
<stop offset="1" stop-color="#FFE873"/>
</linearGradient>
<radialGradient id="paint2_radial_4162_106" cx="0" cy="0" r="1" gradientUnits="userSpaceOnUse" gradientTransform="translate(32.0421 59.7067) rotate(-90) scale(3.20916 14.1069)">
<stop stop-color="#B8B8B8" stop-opacity="0.498"/>
<stop offset="1" stop-color="#7F7F7F" stop-opacity="0"/>
</radialGradient>
<clipPath id="clip0_4162_106">
<rect width="64.5" height="64" fill="white"/>
</clipPath>
</defs>
</svg>
