<svg width="64" height="64" viewBox="0 0 64 64" fill="none" xmlns="http://www.w3.org/2000/svg">
<path d="M8.94995 27.85L8.09995 28.7C9.44995 30.05 9.44995 32.3 8.09995 33.65C6.74995 35 4.49995 35 3.19995 33.6C1.84995 32.25 1.84995 30 3.19995 28.65L5.39995 26.45L5.69995 26.15V24.5L2.39995 27.8C0.549951 29.65 0.549951 32.6 2.39995 34.4C4.24995 36.2 7.19995 36.25 8.99995 34.4C10.8 32.6 10.8 29.7 8.94995 27.85V27.85Z" fill="#EE4C2C"/>
<path d="M7.29995 27.65C7.63132 27.65 7.89995 27.3813 7.89995 27.0499C7.89995 26.7186 7.63132 26.45 7.29995 26.45C6.96858 26.45 6.69995 26.7186 6.69995 27.0499C6.69995 27.3813 6.96858 27.65 7.29995 27.65Z" fill="#EE4C2C"/>
<path d="M17.45 32.0501H16.05V35.7001H15V25.3501H17.6C20.3 25.3501 21.6 26.7001 21.6 28.5501C21.6 30.8501 20 32.0501 17.45 32.0501V32.0501ZM17.55 26.4001H16.05V31.1501L17.5 31.1001C19.45 31.0501 20.5 30.3001 20.5 28.7001C20.55 27.2001 19.45 26.4001 17.55 26.4001ZM26.35 35.6501L25.75 37.3001C25.05 39.1501 24.35 39.6501 23.3 39.6501C22.75 39.6501 22.3 39.5001 21.85 39.3001L22.15 38.3501C22.5 38.5501 22.9 38.7001 23.3 38.7001C23.85 38.7001 24.3 38.4001 24.85 36.9501L25.35 35.6001L22.4 28.1501H23.5L25.85 34.4001L28.2 28.1501H29.25L26.35 35.6501V35.6501Z" fill="#EE4C2C"/>
<path d="M32.75 26.4001V35.7501H31.7001V26.4001H28.05V25.4001H36.35V26.4001H32.75ZM39.4001 35.9001C37.3001 35.9001 35.75 34.3501 35.75 31.9501C35.75 29.5501 37.35 27.9501 39.5 27.9501C41.65 27.9501 43.1501 29.5001 43.1501 31.9001C43.1001 34.3001 41.5001 35.9001 39.4001 35.9001ZM39.4001 28.9001C37.8001 28.9001 36.75 30.1501 36.75 31.9501C36.75 33.8001 37.8001 35.0501 39.4001 35.0501C41.0001 35.0501 42.05 33.8001 42.05 32.0001C42.1 30.1001 41.0501 28.9001 39.4001 28.9001V28.9001ZM45.7001 35.7001H44.6501V28.1501L45.7001 27.9001V29.5001C46.2001 28.5501 46.9001 27.9001 47.9001 27.9001C48.4001 27.9001 48.85 28.0501 49.25 28.2501L49 29.2001C48.65 29.0001 48.25 28.8501 47.85 28.8501C47.05 28.8501 46.3001 29.4501 45.7001 30.8001V35.7001V35.7001ZM53.25 35.9001C50.95 35.9001 49.55 34.2501 49.55 31.9501C49.55 29.6001 51.1 27.9501 53.25 27.9501C54.15 27.9501 54.95 28.2001 55.6 28.6001L55.35 29.5001C54.8 29.1001 54.05 28.9001 53.25 28.9001C51.6 28.9001 50.6 30.1001 50.6 31.9001C50.6 33.7501 51.65 34.9501 53.25 34.9501C54 34.9501 54.8 34.7001 55.35 34.3501L55.6 35.3001C54.95 35.6501 54.15 35.9001 53.25 35.9001ZM61.9501 35.7001V30.8001C61.9501 29.4501 61.4 28.9001 60.35 28.9001C59.45 28.9001 58.65 29.3501 58 29.9501V35.7001H56.9501V24.6001L58 24.3501V29.1501C58.8 28.3501 59.8001 27.9501 60.6501 27.9501C62.1001 27.9501 63 28.9001 63 30.5501V35.7001H61.9501Z" fill="#EE4C2C"/>
</svg>
