<svg width="65" height="65" viewBox="0 0 65 65" fill="none" xmlns="http://www.w3.org/2000/svg">
<g clip-path="url(#clip0_4158_56)">
<path d="M32.25 37.9962C35.398 37.9962 37.95 35.4442 37.95 32.2962C37.95 29.1482 35.398 26.5962 32.25 26.5962C29.102 26.5962 26.55 29.1482 26.55 32.2962C26.55 35.4442 29.102 37.9962 32.25 37.9962Z" fill="#61DAFB"/>
<path d="M53.9 22.8962C52.8 22.4962 51.65 22.0962 50.45 21.7462C50.75 20.5462 51 19.3462 51.2 18.1962C52.25 11.5962 51.1 6.94619 47.9 5.14619C46.95 4.59619 45.9 4.34619 44.7 4.34619C41.2 4.34619 36.75 6.94619 32.25 11.2962C27.75 6.94619 23.3 4.34619 19.8 4.34619C18.6 4.34619 17.55 4.59619 16.6 5.14619C13.4 6.99619 12.25 11.6462 13.3 18.1962C13.5 19.3462 13.75 20.5462 14.05 21.7462C12.85 22.0962 11.7 22.4462 10.6 22.8962C4.35 25.2962 0.949997 28.5962 0.949997 32.2962C0.949997 35.9962 4.4 39.2962 10.6 41.6962C11.7 42.0962 12.85 42.4962 14.05 42.8462C13.75 44.0462 13.5 45.2462 13.3 46.3962C12.25 52.9962 13.4 57.6462 16.6 59.4462C17.55 59.9962 18.6 60.2462 19.8 60.2462C23.35 60.2462 27.8 57.6462 32.25 53.2962C36.75 57.6462 41.2 60.2462 44.7 60.2462C45.9 60.2462 46.95 59.9962 47.9 59.4462C51.1 57.5962 52.25 52.9462 51.2 46.3962C51 45.2462 50.75 44.0462 50.45 42.8462C51.65 42.4962 52.8 42.1462 53.9 41.6962C60.15 39.2962 63.55 35.9962 63.55 32.2962C63.55 28.5962 60.15 25.2962 53.9 22.8962ZM46.5 7.64619C48.55 8.84619 49.25 12.5462 48.4 17.7962C48.25 18.8462 48 19.9462 47.7 21.0962C45.1 20.4962 42.35 20.0962 39.45 19.8462C37.75 17.4462 36 15.2962 34.25 13.3462C37.95 9.69619 41.7 7.19619 44.75 7.19619C45.4 7.19619 46 7.34619 46.5 7.64619ZM40.9 37.2962C40 38.8962 38.95 40.4962 37.85 42.0962C36 42.2462 34.15 42.2962 32.25 42.2962C30.3 42.2962 28.45 42.2462 26.65 42.0962C25.55 40.4962 24.55 38.8962 23.65 37.2962C22.7 35.6462 21.8 33.9462 21 32.2962C21.8 30.6462 22.7 28.9462 23.65 27.2962C24.55 25.6962 25.6 24.0962 26.7 22.4962C28.55 22.3462 30.4 22.2962 32.3 22.2962C34.25 22.2962 36.1 22.3462 37.9 22.4962C39 24.0962 40 25.6962 40.9 27.2962C41.85 28.9462 42.75 30.6462 43.55 32.2962C42.7 33.9462 41.85 35.5962 40.9 37.2962ZM45.05 35.6462C45.8 37.3962 46.4 39.0962 46.95 40.7962C45.25 41.1962 43.45 41.4962 41.55 41.7462C42.15 40.7962 42.8 39.7962 43.35 38.7462C43.95 37.6962 44.5 36.6462 45.05 35.6462ZM32.25 49.1962C31.05 47.8962 29.9 46.4962 28.8 45.0462C29.95 45.0962 31.1 45.1462 32.25 45.1462C33.4 45.1462 34.55 45.0962 35.7 45.0462C34.6 46.4962 33.45 47.8962 32.25 49.1962ZM22.95 41.6962C21.05 41.4462 19.25 41.1462 17.55 40.7462C18.1 39.0962 18.7 37.3462 19.45 35.5962C20 36.5962 20.55 37.6462 21.15 38.6462C21.75 39.7462 22.35 40.6962 22.95 41.6962ZM19.45 28.9462C18.7 27.1962 18.1 25.4962 17.55 23.7962C19.25 23.3962 21.05 23.0962 22.95 22.8462C22.35 23.7962 21.7 24.7962 21.15 25.8462C20.55 26.8962 20 27.9462 19.45 28.9462ZM32.25 15.3962C33.45 16.6962 34.6 18.0962 35.7 19.5462C34.55 19.4962 33.4 19.4462 32.25 19.4462C31.1 19.4462 29.95 19.4962 28.8 19.5462C29.9 18.0962 31.05 16.6962 32.25 15.3962ZM43.35 25.8962L41.55 22.8962C43.45 23.1462 45.25 23.4462 46.95 23.8462C46.4 25.4962 45.8 27.2462 45.05 28.9962C44.5 27.9462 43.95 26.8962 43.35 25.8962ZM16.1 17.7962C15.25 12.5462 15.95 8.84619 18 7.64619C18.5 7.34619 19.1 7.19619 19.75 7.19619C22.75 7.19619 26.5 9.64619 30.25 13.3462C28.5 15.2462 26.75 17.4462 25.05 19.8462C22.15 20.0962 19.4 20.5462 16.8 21.0962C16.5 19.9462 16.3 18.8462 16.1 17.7962ZM3.75 32.2962C3.75 29.9462 6.6 27.4462 11.6 25.5962C12.6 25.1962 13.7 24.8462 14.8 24.5462C15.6 27.0462 16.6 29.6962 17.8 32.3462C16.6 34.9962 15.55 37.5962 14.8 40.0962C7.9 38.0962 3.75 35.0962 3.75 32.2962ZM18 56.9462C15.95 55.7462 15.25 52.0462 16.1 46.7962C16.25 45.7462 16.5 44.6462 16.8 43.4962C19.4 44.0962 22.15 44.4962 25.05 44.7462C26.75 47.1462 28.5 49.2962 30.25 51.2462C26.55 54.8962 22.8 57.3962 19.75 57.3962C19.1 57.3962 18.5 57.2462 18 56.9462ZM48.4 46.7962C49.25 52.0462 48.55 55.7462 46.5 56.9462C46 57.2462 45.4 57.3962 44.75 57.3962C41.75 57.3962 38 54.9462 34.25 51.2462C36 49.3462 37.75 47.1462 39.45 44.7462C42.35 44.4962 45.1 44.0462 47.7 43.4962C48 44.6462 48.2 45.7462 48.4 46.7962ZM52.9 38.9962C51.9 39.3962 50.8 39.7462 49.7 40.0462C48.9 37.5462 47.9 34.8962 46.7 32.2462C47.9 29.5962 48.95 26.9962 49.7 24.4962C56.6 26.4962 60.75 29.4962 60.75 32.2962C60.75 34.6462 57.85 37.1462 52.9 38.9962Z" fill="#61DAFB"/>
</g>
<defs>
<clipPath id="clip0_4158_56">
<rect width="64.5" height="64.5925" fill="white"/>
</clipPath>
</defs>
</svg>
