<svg width="64" height="61" viewBox="0 0 64 61" fill="none" xmlns="http://www.w3.org/2000/svg">
<path d="M44.3436 42.435C39.8436 51.635 31.9636 57.825 21.5386 59.86C19.9402 60.2516 18.2993 60.4431 16.6536 60.43C10.6536 60.43 5.15363 57.93 2.48363 53.835C-1.10137 48.38 -2.32137 36.815 9.49863 28.26C9.73863 29.565 10.2286 31.355 10.5536 32.415C8.23329 34.1388 6.33401 36.3663 4.99863 38.93C2.79863 43.25 3.04363 47.565 5.64863 51.555C7.44863 54.245 10.2986 55.88 13.9636 56.38C18.5413 56.9594 23.1853 56.0848 27.2386 53.88C33.5936 50.54 37.8286 46.55 40.5986 41.095C39.8154 40.2856 39.3518 39.2199 39.2936 38.095C39.2518 36.8879 39.6905 35.7136 40.5135 34.8296C41.3365 33.9456 42.4766 33.4243 43.6836 33.38H43.8536C45.0276 33.3741 46.1589 33.8198 47.0135 34.6247C47.8681 35.4297 48.3805 36.5324 48.4447 37.7046C48.5089 38.8769 48.1201 40.0289 47.3586 40.9225C46.5971 41.816 45.5212 42.3826 44.3536 42.505L44.3436 42.435ZM58.6786 32.335C64.7836 39.255 64.9486 47.4 62.5886 52.125C60.3886 56.44 54.5886 60.76 46.7886 60.76C43.1474 60.6857 39.5655 59.8243 36.2886 58.235C37.4336 57.42 39.0586 56.115 39.9536 55.3C42.4806 56.3947 45.2 56.976 47.9536 57.01C53.0036 57.01 56.8286 54.65 59.1086 50.335C60.5736 47.485 60.6586 44.145 59.2736 40.725C57.5742 36.4219 54.55 32.7709 50.6386 30.3C45.507 26.8407 39.4574 24.9966 33.2686 25.005H31.8036C31.462 25.7941 30.9063 26.4718 30.1993 26.9614C29.4924 27.451 28.6625 27.7328 27.8036 27.775H27.6486C26.4607 27.7604 25.3253 27.2833 24.4835 26.445C23.6417 25.6067 23.1599 24.4732 23.1403 23.2854C23.1208 22.0975 23.5651 20.9489 24.3789 20.0833C25.1927 19.2178 26.3118 18.7036 27.4986 18.65H27.6636C28.4907 18.6506 29.3015 18.8791 30.0072 19.3105C30.7128 19.7418 31.2859 20.3592 31.6636 21.095H32.9686C43.3686 21.095 52.4986 25.085 58.6786 32.335V32.335ZM17.3036 43.835C17.218 43.0047 17.4192 42.1701 17.8736 41.47C13.3136 33.57 10.8736 23.555 14.6186 13.13C17.3036 5.295 24.0636 0 31.3936 0C39.2136 0 47.3586 6.845 48.3336 20.035C47.1136 19.63 45.3336 19.035 44.2636 18.815C43.9986 14.5 40.3536 3.75 31.7186 3.91C28.6236 3.995 24.0636 5.46 21.7186 8.47C18.8179 12.0631 17.1305 16.483 16.8986 21.095C16.349 27.4189 17.8327 33.7531 21.1336 39.175C21.3159 39.1084 21.5101 39.0812 21.7036 39.095H21.8636C23.073 39.0731 24.2416 39.5326 25.1122 40.3723C25.9828 41.212 26.4842 42.3631 26.5061 43.5725C26.528 44.7819 26.0686 45.9504 25.2289 46.8211C24.3892 47.6917 23.238 48.1931 22.0286 48.215H21.8636C20.6838 48.2108 19.5511 47.7515 18.7015 46.9327C17.852 46.1139 17.3513 44.9989 17.3036 43.82V43.835Z" fill="#764ABC"/>
</svg>
