<?xml version="1.0" encoding="UTF-8"?>
<svg id="Layer_1" xmlns="http://www.w3.org/2000/svg" version="1.1" viewBox="0 0 88.11 64">
  <!-- Generator: Adobe Illustrator 30.0.0, SVG Export Plug-In . SVG Version: 2.1.1 Build 123)  -->
  <defs>
    <style>
      .st0 {
        fill: #404d63;
      }

      .st1 {
        fill: #fff;
      }

      .st2 {
        fill: none;
      }

      .st3 {
        fill: #f77703;
      }
    </style>
  </defs>
  <ellipse class="st0" cx="75.51" cy="17.77" rx="1.13" ry="2.11"/>
  <path class="st0" d="M79.82,17.77c0,1.16-.66,2.11-1.28,2.11s-.38-.94-.38-2.11-.24-2.11.38-2.11,1.28.94,1.28,2.11h0Z"/>
  <path class="st1" d="M59.06,39.77s3.2.64,3.33,4.1c0,0-7.88,1.22-6.41,7.5,0,0-2.88-.32-3.59-1.35-.7-1.02-1.66-3.4-.7-5.19.96-1.8,4.23-5.77,7.37-5.06h0Z"/>
  <path class="st0" d="M56.54,51.86l-.6-.07c-.32-.03-3.1-.38-3.9-1.53-.85-1.23-1.74-3.74-.73-5.63.94-1.75,3.88-5.37,6.99-5.37.28,0,.57.03.85.09.02,0,3.52.75,3.66,4.5v.38s-.37.06-.37.06c-.04,0-3.84.62-5.48,3.06-.74,1.1-.93,2.42-.58,3.92l.13.58h.03ZM58.31,40.11c-2.7,0-5.42,3.39-6.24,4.93s-.02,3.73.68,4.75c.36.53,1.68.91,2.71,1.09-.23-1.5.05-2.84.82-3.98,1.54-2.28,4.58-3.12,5.67-3.35-.31-2.77-2.93-3.33-2.96-3.34-.22-.05-.44-.07-.67-.07v-.03Z"/>
  <path class="st1" d="M61.94,43.42s3.07,3.2,2.37,6.02l-1.13.58s-.13-4.6-2.6-5.66l1.37-.94h0Z"/>
  <path class="st0" d="M62.78,50.7l-.02-.67s-.16-4.34-2.35-5.28l-.71-.31,2.31-1.57.25.26c.13.14,3.23,3.41,2.48,6.42l-.05.19-1.91.97h0ZM61.37,44.33c1.61,1.19,2.06,3.8,2.19,5.02l.38-.19c.38-2.07-1.4-4.4-2.07-5.17l-.51.35h0Z"/>
  <path class="st1" d="M60.57,44.36s1.99.6,2.61,5.66c0,0-.85,2.17-3.1.96,0,0-.48-3.91-2.13-5.26l2.62-1.37h0Z"/>
  <path class="st0" d="M61.36,51.78c-.47,0-.96-.14-1.48-.42-.12-.07-.2-.19-.22-.32,0-.04-.48-3.76-1.98-4.98-.18-.15-.21-.42-.06-.6.04-.04.08-.08.13-.1l2.62-1.37c.1-.05.21-.06.32-.03.23.07,2.27.84,2.91,6.02,0,.07,0,.14-.03.21-.03.07-.65,1.6-2.22,1.6h0ZM60.48,50.7c.32.15.61.22.88.22.82,0,1.25-.71,1.38-.97-.49-3.77-1.75-4.86-2.17-5.12l-1.91,1c1.21,1.44,1.69,4.08,1.81,4.87h0Z"/>
  <path class="st1" d="M57.96,45.73s2.39,2.95,2.13,5.26c0,0-1.15,1.6-3.78.39,0,0-1.38-3.46,1.65-5.64"/>
  <path class="st0" d="M58.15,52.25c-.63,0-1.31-.17-2.02-.49l-.34-.16.08-.22c-.25-.77-1.04-3.9,1.85-5.98l.32-.23.25.32c.1.13,2.49,3.12,2.22,5.57l-.02.11-.07.09s-.76,1.02-2.29,1.02l.03-.02ZM56.65,51.06c.54.23,1.04.34,1.5.34.87,0,1.36-.41,1.53-.59.11-1.65-1.23-3.69-1.8-4.48-1.99,1.7-1.44,4.05-1.23,4.73h0Z"/>
  <path class="st1" d="M51.76,44.18s4.04,1.54,8.07-6.41c0,0-2.18.77-4.04,0,0,0-2.01,5.65-4.04,6.41"/>
  <path class="st0" d="M52.62,44.59c-.59,0-.95-.13-.96-.14l-.7-.27.7-.26c1.6-.6,3.37-4.81,3.87-6.23l.1-.28.28.12c.52.22,1.11.32,1.77.32,1.13,0,2.06-.32,2.07-.32l.67-.23-.32.63c-2.95,5.82-5.94,6.69-7.46,6.69l-.02-.02ZM52.55,44.02h.06c1.34,0,3.95-.77,6.66-5.81-.41.09-.98.18-1.61.18s-1.19-.09-1.7-.26c-.4,1.19-1.85,4.58-3.41,5.88h0ZM29.46,44.07s-3.59.9-1.79,4.1c1.55,2.76,4.1,2.56,4.1,2.56,0,0-.13-3.34,2.69-4.62,0,0,1.15-2.82-5-2.06v.02Z"/>
  <path class="st1" d="M47.78,44.96s-4.29-2.44-8.07-1.86c-3.78.58-9.8,2.69-8.78,7.31,1.02,4.61,7.17,4.35,7.17,4.35,0,0,2.88-7.43,9.67-6.85v-2.95h0Z"/>
  <path class="st0" d="M37.94,55.19c-1.06,0-6.42-.23-7.42-4.69-.3-1.35-.07-2.59.69-3.69,2.01-2.94,6.96-3.9,8.43-4.13.4-.06.83-.09,1.27-.09,3.5,0,6.92,1.92,7.07,2l.21.12v3.66l-.46-.04c-6.41-.55-9.22,6.52-9.25,6.58l-.1.26h-.47s.03.02.03.02ZM40.92,43.44c-.38,0-.77.03-1.15.08-2.85.44-6.42,1.65-7.86,3.77-.61.9-.8,1.92-.56,3.03.83,3.7,5.33,4.01,6.48,4.02.61-1.33,3.57-7.09,9.53-6.88v-2.24c-.79-.41-3.64-1.78-6.43-1.78h0Z"/>
  <path class="st1" d="M45.09,55.34s1.22-.58,1.73-1.47c0,0,.38-4.26-1.47-5.81,0,0-1.67-.23-2.89,1.51,0,0,2.62,3.48,2.62,5.78h.01Z"/>
  <path class="st0" d="M45.09,55.77c-.23,0-.42-.19-.42-.42h0c0-2.03-2.28-5.17-2.53-5.52-.1-.13-.11-.31-.05-.46,1.43-2.05,3.32-1.74,3.32-1.74.08,0,.15.04.22.1,2.01,1.68,1.64,6,1.62,6.18,0,.06-.02.12-.05.17-.57,1-1.86,1.62-1.91,1.65-.06.02-.12.04-.18.04h0ZM43,49.57c.62.87,2.13,3.15,2.46,5.07.32-.21.71-.52.95-.9.04-.6.19-3.93-1.23-5.27-.38,0-1.35.1-2.18,1.1h0Z"/>
  <path class="st1" d="M45.09,55.34s-5.28,1.18-6.87-.85c0,0,1.09-3.85,3.69-4.8,2.6-.94,2.79,3.61,3.18,5.66h0Z"/>
  <path class="st0" d="M41.92,56.11c-1.97,0-3.32-.46-4.03-1.36-.08-.11-.11-.25-.07-.38.05-.17,1.18-4.08,3.95-5.08.28-.1.55-.15.81-.15,2.02,0,2.46,2.94,2.77,5.09.06.38.11.74.17,1.03.05.22-.1.44-.32.49-.06.01-1.58.35-3.27.35h-.01ZM38.7,54.39c.58.57,1.68.87,3.21.87,1.1,0,2.14-.15,2.69-.25-.03-.22-.07-.43-.1-.65-.26-1.74-.64-4.37-1.93-4.37-.16,0-.33.03-.52.1-2.03.73-3.09,3.5-3.36,4.3h0Z"/>
  <path class="st1" d="M47.78,47.91s-3.12-.51-1.75.98c1.47,1.6.49,5.39.49,5.39,1.36.67,2.16-.79,2.16-.79,1.09-3.92-.9-5.57-.9-5.57"/>
  <path class="st0" d="M47.22,54.88c-.29,0-.6-.08-.89-.22l-.31-.15.09-.34c.26-.99.69-3.82-.39-4.99-.15-.17-.63-.68-.4-1.21.23-.51.92-.57,1.43-.57.55,0,1.08.09,1.11.09l.11.02.09.08c.09.08,2.18,1.88,1.03,6.02-.07.14-.7,1.28-1.87,1.28h0ZM47.01,54.01c.76.16,1.29-.72,1.29-.73.85-3.09-.38-4.62-.72-4.97-.18-.02-.51-.06-.84-.06-.38,0-.56.05-.63.08.03.03.09.13.22.28,1.33,1.46.88,4.36.67,5.41h0ZM46.9,45.8s-.1-.01-.14-.03l-.12-.06s-2.69-1.39-6.13-1.39c-2.02,0-3.93.47-5.67,1.38l-.11.06s-.1.04-.15.04h-.13c-.92,0-7.84-1.55-8.62-1.73l-11.26-5.9C2.34,31.21,1.65,29.07,2.19,28.06c.29-.54,1.09-.88,2.04-.88.28,0,.57.03.85.09,1.28.28,2.55.62,3.88.98,2.23.6,4.53,1.21,7.03,1.58,3.21-6.08,10.54-16.04,24.1-16.04,11.67,0,13.83,4.32,15.57,7.8.97,1.93,1.73,3.46,3.94,4.13.65-.02,4.43-.18,5.5-2.66.36-.82.64-1.92.95-3.08.9-3.41,1.92-7.23,5.18-7.23.08,0,.17,0,.26,0,.12,0,.23.09.27.2l-.32.61c.04.11.55.36.46.44,0,0-.14.38-.19.67-.21.85-.31,1.68-.31,2.54,0,3.22,1.47,6.04,3.15,6.04.66,0,1.39-.63,1.89-1.24l.42-.55c.05-.09.17-.31.27-.31h.01c.11,0,.2.06.25.16,0,0,.38.69.98.84.07.02.15.03.24.03.27,0,.58-.08.88-.15.3-.08.6-.15.86-.15.94.03,2.69,1.24,3.44,2.6.48.87.51,1.7.09,2.41-1.28,2.17-2.53,2.55-4.79,3.22-.44.13-.92.27-1.46.44-.58.37-3.98,2.38-7.56,2.38h-.07c-1,1.47-4.54,5.56-12.85,5.56-.41,0-.82,0-1.25-.03-.74,1.89-3.25,7.04-8.86,7.26h-.15s0,.05,0,.05Z"/>
  <path class="st0" d="M46.78,45.43s-2.73-1.42-6.27-1.42c-2.08,0-4.03.48-5.81,1.42l-.12.06h-.13c-.92,0-8.56-1.72-8.56-1.72l-11.18-5.87c-5.98-3.4-13.19-7.95-12.26-9.69.31-.56,1.41-.89,2.57-.64,3.5.77,7.05,2.02,11.15,2.6,3.19-6.13,10.44-16.06,23.92-16.06,11.48,0,13.6,4.23,15.3,7.63.96,1.92,1.79,3.58,4.12,4.28.74,0,4.71-.17,5.86-2.83.37-.85.66-1.98.98-3.16.86-3.26,1.84-6.97,4.88-6.97.07,0,.16,0,.24,0l-.3.82s.3.35.24.76c-.2.85-.3,1.71-.3,2.59,0,3.44,1.58,6.34,3.45,6.34.77,0,1.66-.17,2.28-1.1l.31-.98s.43.8,1.17.99c.63.17,1.53-.27,2.09-.26,1.15.04,4.41,2.58,3.25,4.57-1.45,2.48-2.77,2.48-6.07,3.54-.56.35-3.95,2.36-7.47,2.36h-.27c-.76,1.19-4.17,5.57-12.69,5.57-.47,0-.95,0-1.45-.04-.56,1.54-2.98,7.05-8.67,7.28h-.14s-.12-.05-.12-.05v-.03Z"/>
  <path class="st1" d="M80.95,23.23c-2.41-1.34-3.46-1.02-3.79-.81-.85,1.34-1.82,1.35-2.81,1.35-2.19,0-3.74-2.75-3.74-6.54,0-.95.11-1.85.31-2.67.08-.6.52-.99.52-.99-3.85-.25-4.19,6.54-5.6,9.81s-6.41,3.14-6.41,3.14c-7.05-2.05-1.67-11.91-19.35-11.91-16.03-.01-22.92,14.89-23.73,16.38-5.04-.83-12.26-4.09-13.16-2.42-.89,1.67,11.77,8.88,11.77,8.88l11.55,6.37s7.05,1.15,7.94,1.15c6.28-3.33,12.56,0,12.56,0,6.28-.26,8.33-7.31,8.33-7.31,10.89.77,14.22-5.51,14.22-5.51,3.85.25,7.82-2.31,7.82-2.31,1.16-.28,2.28-.71,3.33-1.27.94-.5,1.86-1.08,2.28-1.92.9-1.79-2.05-3.44-2.05-3.44h0Z"/>
  <path class="st3" d="M15.07,33.16s.99-.53,5.13.75c2.39.74,6.11,4.88,9.01,5.65,0,0,2.86,1.92,6.45,0,0,0,1.49-1.5,5-1.32,3.5.17,6.24,1.66,7.94,1.58,1.71-.08,3.76-3.12,4.4-6.15.64-3.03,2.65-8.71,5.04-9.57,2.39-.85,2.82,2.1,2.82,2.1,0,0-3.59,2.05-3.8,4.57,0,0-.75,4.85-1.4,6.94-.65,2.1-1.4,7.7-7.86,7.87,0,0-3.36-1.87-7.39-1.72-3.24.13-3.93,1.15-6.23,1.37-2.35.23-5.09-.49-7.64-1.37-5.05-1.74-8.98-4.25-13.66-7,0,0-4.4-2.7,2.22-3.66l-.03-.03Z"/>
  <path class="st0" d="M47.68,45.99l-.1-.06s-3.29-1.82-7.17-1.68c-1.78.07-2.75.41-3.69.74-.72.25-1.47.52-2.52.62-2.08.2-4.48-.25-7.83-1.4-4.49-1.55-8.01-3.65-12.09-6.07l-1.65-.98v-.02c-.5-.25-1.57-1.16-1.64-2.07-.13-1.74,2.88-2.2,3.96-2.35.34-.13,1.41-.47,5.36.75,1.18.36,2.6,1.46,4.1,2.62,1.68,1.29,3.41,2.63,4.89,3.02l.12.06s1.2.78,2.94.78c1.02,0,2.03-.26,3.01-.78.31-.28,1.94-1.56,5.27-1.4,1.96.09,3.7.6,5.11,1.01,1.06.31,1.97.57,2.66.57h.12c1.44-.07,3.39-2.9,4-5.81.48-2.24,2.47-8.86,5.31-9.88.33-.12.66-.18.96-.18,1.62,0,2.29,1.71,2.42,2.61l.04.28-.25.15s-3.4,1.97-3.59,4.23c-.04.23-.77,4.93-1.42,7.03-.07.21-.14.47-.21.75-.68,2.54-1.95,7.26-8.05,7.42h-.12l.06.04ZM40.86,43.4c3.53,0,6.43,1.42,7.02,1.73,5.37-.19,6.48-4.32,7.14-6.79.08-.29.15-.55.22-.78.63-2.04,1.38-6.83,1.39-6.88.19-2.29,2.87-4.16,3.74-4.71-.13-.52-.54-1.62-1.52-1.62-.21,0-.43.04-.67.13-2.08.74-4.08,5.96-4.77,9.26-.63,2.99-2.76,6.39-4.8,6.49h-.17c-.81,0-1.78-.28-2.9-.6-1.43-.41-3.05-.88-4.92-.97-3.25-.17-4.67,1.19-4.68,1.2l-.1.07c-1.12.6-2.29.9-3.47.9-1.8,0-3.06-.71-3.36-.89-1.63-.45-3.41-1.83-5.13-3.15-1.44-1.11-2.8-2.16-3.84-2.48-3.76-1.16-4.82-.77-4.83-.77l-.12.03c-2.8.4-3.23,1.07-3.29,1.33-.11.54.84,1.31,1.21,1.53l1.66.98c4.04,2.4,7.53,4.47,11.94,5.99,1.96.68,4.97,1.6,7.46,1.36.94-.09,1.61-.33,2.32-.58.95-.34,2.03-.72,3.94-.8.16,0,.32,0,.48,0h.05Z"/>
  <path class="st1" d="M21.9,40.58s-1.45-2.65-4.61-3.42c-3.16-.77-3.76,0-3.76,0,0,0-4.27,5.3-3.84,10.08s3.42,4.27,3.42,4.27c0,0,.48-5.3,3.36-5.64,2.88-.34,5.44-.26,5.44-.26v-5.03h0Z"/>
  <path class="st0" d="M12.85,51.96c-.74,0-3.2-.34-3.59-4.67-.44-4.9,3.76-10.16,3.93-10.38.09-.12.48-.51,1.71-.51.68,0,1.52.12,2.48.35,3.3.8,4.82,3.51,4.88,3.62l.05.09v5.58l-.44-.02s-.27,0-.74,0c-.9,0-2.7.04-4.64.26-2.08.25-2.86,3.88-2.98,5.25l-.03.32-.32.06s-.12.02-.32.02v.05ZM14.91,37.25c-.83,0-1.07.21-1.07.21-.03.03-4.14,5.2-3.73,9.75.29,3.32,1.83,3.85,2.61,3.9.17-1.28.95-5.32,3.69-5.65,2.24-.26,4.25-.27,5.06-.27v-4.49c-.28-.45-1.68-2.48-4.29-3.12-.9-.22-1.67-.33-2.28-.33h0Z"/>
  <path class="st1" d="M13.1,51.52s1.62,2.05,5.47,1.54c0,0,1.02-5.24,0-7.36,0,0-2.06-.67-3.68,1.04-1.62,1.71-1.79,4.79-1.79,4.79h0Z"/>
  <path class="st0" d="M17.37,53.56c-3.15,0-4.54-1.71-4.6-1.78l-.1-.13v-.16c.02-.13.21-3.25,1.91-5.06,1.83-1.94,4.08-1.17,4.12-1.15l.18.05.08.16c1.08,2.22.08,7.41.04,7.63l-.06.3-.3.04c-.42.05-.85.08-1.25.08h-.02ZM13.54,51.37c.35.35,1.53,1.34,3.83,1.34.27,0,.55-.01.84-.04.19-1.1.75-4.85.06-6.62-.49-.1-1.89-.28-3.07.96-1.28,1.35-1.59,3.69-1.66,4.34v.02Z"/>
  <path class="st1" d="M20.19,45.62s1.53,3.59.94,6.92c0,0-.32.51-2.56.51,0,0,1.28-6.1,0-7.36l1.62-.07Z"/>
  <path class="st0" d="M18.04,53.48l.11-.51c.48-2.27.93-6.17.12-6.97l-.69-.69,2.89-.13.12.27c.07.15,1.58,3.74.97,7.16l-.06.15c-.13.21-.68.71-2.92.71h-.52s-.02,0-.02,0ZM19.28,46.09c.62,1.69.09,5.06-.19,6.53,1.06-.05,1.5-.22,1.65-.31.42-2.61-.51-5.39-.83-6.25l-.62.03h0Z"/>
  <path class="st1" d="M21.13,52.54s2.14-.39,2.56-1.01c0,0-.26-4.28-1.79-5.91h-1.71s1.71,3.85.94,6.92h0Z"/>
  <path class="st0" d="M20.56,53.08l.16-.64c.69-2.75-.74-6.24-.91-6.63l-.11-.26.32-.34h2.06s.13.13.13.13c1.63,1.72,1.9,5.99,1.91,6.18v.15s-.07.12-.07.12c-.49.71-2.29,1.09-2.84,1.19l-.65.12h0ZM20.82,46.05c.44,1.18,1.19,3.66.85,5.94.67-.17,1.32-.4,1.58-.61-.07-.78-.4-3.94-1.55-5.33h-.89Z"/>
  <path class="st1" d="M16.35,29.97s-.72,2.23-.57,3"/>
  <path class="st0" d="M15.49,33.03c.13-1.94.78-2.82.86-3.06l.28.09c-.19.6-.67,2.29-.56,2.87l-.57.1ZM72.22,27.49c-.12-.11-.3-.1-.41.02-.11.12-.08.28.02.41,1.52,1.94,3.23,2.5,4.27,2.65.23-.17,2.98-1.11,3.18-1.29-1.32.15-4.9.17-7.07-1.79h0Z"/>
  <path class="st2" d="M76.81,12.87s-.01.02-.02.02c-.15-.23-.31-.44-.48-.62v-.02c-.5-.54-1.09-.85-1.74-.85-1.87,0-3.38,2.62-3.38,5.85,0,1.01.15,1.96.41,2.79.57,1.82,1.69,3.06,2.97,3.06.56,0,1.09-.24,1.55-.66.07-.06.14-.15.21-.22l-.02-.02c.18-.19.33-.39.47-.6,0,0,.01.02.02.02.7-1.08,1.15-2.64,1.15-4.38s-.44-3.32-1.15-4.39h0ZM77.26,22.23s0,0,0,0"/>
  <path class="st0" d="M78.89,10.73c-.79-.14-1.8.18-2.34.81.17.18.36.3.48.49.43-.44.93-.62,1.86-.62,1.6,0,3,3.12,3,5.87,0,1.93-.63,3.6-1.56,4.43-.4.36-.85.56-1.32.56-.53,0-1.03-.26-1.47-.71-.06.49-.43.53-.43.53.55.64,1.2,1.02,1.91,1.02.85,0,1.61-.54,2.21-1.42.72-1.07,1.18-2.65,1.18-4.42.01-3.22-1.44-6.16-3.49-6.53h-.03Z"/>
  <path class="st0" d="M77.26,22.23c.78-1.25,1.27-3.01,1.27-5,0-1.67-.36-3.16-.93-4.35-.29-.52-.8-1.25-.95-1.46-.61-.66-1.32-1.05-2.09-1.05-1.64,0-3.05,1.72-3.65,4.19-.2.82-.31,1.72-.31,2.66,0,3.78,1.77,6.53,3.96,6.53.83,0,1.59-.13,2.23-.88l.46-.66h0ZM76.94,22.21s-.39.24-.39.25c-.06.07-.35-.07-.42-.01-.46.41-.99.66-1.55.66-2.53,0-3.15-4.87-3.15-5.88,0-3.23,1.29-5.84,3.15-5.84.64,0,1.87.65,2.22,1.49s1.17,2.61,1.17,4.36-.44,3.31-1.15,4.38c0-.01.28.42.13.57v.02ZM77.26,22.23s0,0,0,0c.02.02.04.03.05.05,0-.05.02-.09.02-.14l-.06.09h0Z"/>
</svg>