<svg width="65" height="65" viewBox="0 0 65 65" fill="none" xmlns="http://www.w3.org/2000/svg">
<g clip-path="url(#clip0_4162_37)">
<path d="M32.252 13.0972C23.7185 13.0972 18.387 17.3622 16.252 25.8957C19.451 21.6302 23.1855 20.0307 27.451 21.0972C29.8865 21.7042 31.627 23.4702 33.5545 25.4272C36.6915 28.6107 40.3225 32.2962 48.252 32.2962C56.785 32.2962 62.117 28.0307 64.252 19.4952C61.0525 23.7632 57.3185 25.3627 53.0525 24.2962C50.6175 23.6887 48.879 21.9232 46.949 19.9662C43.814 16.7827 40.184 13.0972 32.252 13.0972ZM16.252 32.2962C7.71901 32.2962 2.38701 36.5617 0.252014 45.0972C3.45101 40.8292 7.18501 39.2297 11.451 40.2962C13.8865 40.9037 15.627 42.6692 17.5545 44.6262C20.6915 47.8097 24.3225 51.4952 32.252 51.4952C40.785 51.4952 46.117 47.2302 48.252 38.6967C45.0525 42.9622 41.3185 44.5617 37.0525 43.4952C34.6175 42.8882 32.879 41.1222 30.949 39.1652C27.814 35.9817 24.184 32.2962 16.252 32.2962Z" fill="#38B2AC"/>
</g>
<defs>
<clipPath id="clip0_4162_37">
<rect width="64.5" height="64.5925" fill="white"/>
</clipPath>
</defs>
</svg>
