<svg width="65" height="65" viewBox="0 0 65 65" fill="none" xmlns="http://www.w3.org/2000/svg">
<g clip-path="url(#clip0_4158_50)">
<path d="M1.25 32.2512V63.5012H63.75V1.00122H1.25V32.2512ZM51.615 29.7512C53.1119 30.0986 54.4725 30.8815 55.525 32.0012C56.1044 32.6044 56.6081 33.2761 57.025 34.0012C57.025 34.0812 54.325 35.9062 52.68 36.9262C52.62 36.9662 52.38 36.7062 52.115 36.3112C51.8147 35.7931 51.388 35.3594 50.8748 35.0508C50.3615 34.7421 49.7785 34.5685 49.18 34.5462C47.285 34.4162 46.065 35.4112 46.075 37.0462C46.0593 37.4533 46.1525 37.8572 46.345 38.2162C46.76 39.0812 47.535 39.5962 49.965 40.6462C54.44 42.5712 56.355 43.8412 57.545 45.6462C58.875 47.6462 59.17 50.8762 58.27 53.2662C57.27 55.8662 54.82 57.6312 51.355 58.2162C49.7724 58.3975 48.1734 58.3807 46.595 58.1662C44.1861 57.7754 41.9639 56.6285 40.25 54.8912C39.675 54.2562 38.555 52.6012 38.625 52.4812C38.8075 52.3457 38.9997 52.2237 39.2 52.1162L41.5 50.7962L43.295 49.7562L43.67 50.3112C44.3029 51.2165 45.1083 51.9879 46.04 52.5812C48.04 53.6312 50.77 53.4862 52.12 52.2712C52.5733 51.826 52.856 51.2359 52.9191 50.6037C52.9821 49.9715 52.8214 49.3372 52.465 48.8112C51.965 48.1162 50.965 47.5312 48.17 46.3112C44.945 44.9212 43.555 44.0612 42.285 42.6912C41.4922 41.7872 40.9068 40.7205 40.57 39.5662C40.3188 38.2474 40.2816 36.8968 40.46 35.5662C41.125 32.4512 43.46 30.2762 46.87 29.6312C48.4492 29.4358 50.0489 29.4796 51.615 29.7612V29.7512ZM36.945 32.3712V34.9312H28.83V58.0462H23.075V34.9262H14.94V32.4262C14.9182 31.5656 14.9415 30.7044 15.01 29.8462C15.04 29.8062 20.01 29.7862 26.01 29.7962H36.915L36.945 32.3712Z" fill="#007ACC"/>
</g>
<defs>
<clipPath id="clip0_4158_50">
<rect width="64.5" height="64.5925" fill="white"/>
</clipPath>
</defs>
</svg>
