<svg width="160" height="160" viewBox="0 0 160 160" fill="none" xmlns="http://www.w3.org/2000/svg">
<g clip-path="url(#clip0_4713_289)">
<path d="M80 80V2.50531C80 1.12156 78.8784 0 77.4947 0H2.50531C1.12156 0 0 1.12156 0 2.50531V157.495C0 158.878 1.12156 160 2.50531 160H157.495C158.878 160 160 158.878 160 157.495V82.5053C160 81.1219 158.879 80 157.495 80H80Z" fill="#5CC4E0"/>
<path d="M149.478 80H80.1112H80V160H157.495C158.215 160 158.862 159.694 159.319 159.208C159.74 158.76 160 158.158 160 157.495V90.5219L149.478 80Z" fill="#FAEC8E"/>
<path d="M80.1112 80H80V160H157.495C158.215 160 158.862 159.694 159.319 159.208L80.1112 80Z" fill="#FBC96C"/>
<path d="M151.983 90.5219H160L149.478 80V88.0166C149.478 89.4003 150.6 90.5219 151.983 90.5219Z" fill="white"/>
<path d="M69.1441 0H2.50531C1.81344 0 1.18719 0.280313 0.73375 0.73375C0.280625 1.18719 0 1.81344 0 2.50531V80H80V10.8559L69.1441 0Z" fill="#FF675C"/>
<path d="M0 2.50521V79.9999H80L0.73375 0.733643C0.280625 1.18708 0 1.81333 0 2.50521Z" fill="#DB3D5A"/>
<path d="M71.6494 10.8559H80L69.1441 0V8.35063C69.1441 9.73438 70.2656 10.8559 71.6494 10.8559Z" fill="white"/>
<path d="M32.5678 141.294C21.2406 141.294 12.025 130.88 12.025 118.079C12.025 105.279 21.2406 94.8643 32.5678 94.8643C36.0797 94.8643 39.5456 95.8814 42.5909 97.8061C43.7603 98.5452 44.1094 100.093 43.3703 101.262C42.6313 102.432 41.0834 102.781 39.9141 102.042C37.6709 100.624 35.1306 99.8749 32.5678 99.8749C24.0028 99.8749 17.0353 108.041 17.0353 118.08C17.0353 128.118 24.0028 136.284 32.5678 136.284C35.1309 136.284 37.6712 135.535 39.9141 134.118C41.0837 133.378 42.6309 133.727 43.3703 134.897C44.1094 136.067 43.7603 137.614 42.5909 138.353C39.5456 140.277 36.0797 141.294 32.5678 141.294Z" fill="white"/>
<path d="M57.9541 141.294C50.3106 141.294 44.0919 135.076 44.0919 127.432C44.0919 119.788 50.3106 113.57 57.9541 113.57C65.5975 113.57 71.8162 119.789 71.8162 127.432C71.8162 135.076 65.5978 141.294 57.9541 141.294ZM57.9541 118.58C53.0731 118.58 49.1022 122.551 49.1022 127.432C49.1022 132.313 53.0731 136.284 57.9541 136.284C62.835 136.284 66.8059 132.313 66.8059 127.432C66.8059 122.551 62.835 118.58 57.9541 118.58Z" fill="white"/>
<path d="M137.454 141.294C136.802 141.294 136.161 141.04 135.681 140.561L97.2025 102.081V138.789C97.2025 140.173 96.0813 141.294 94.6972 141.294C93.3134 141.294 92.1919 140.173 92.1919 138.789V96.0334C92.1919 95.0202 92.8022 94.1065 93.7384 93.719C94.6744 93.3305 95.7516 93.5452 96.4688 94.2618L134.948 132.741V96.0334C134.948 94.6496 136.069 93.5281 137.453 93.5281C138.837 93.5281 139.958 94.6493 139.958 96.0334V138.789C139.958 139.802 139.348 140.716 138.412 141.103C138.102 141.232 137.776 141.294 137.454 141.294Z" fill="white"/>
<path d="M47.9331 61.4613H43.7578V21.0438H47.9331C49.3169 21.0438 50.4384 19.9226 50.4384 18.5385C50.4384 17.1545 49.3172 16.0332 47.9331 16.0332H34.5719C33.1881 16.0332 32.0666 17.1545 32.0666 18.5385C32.0666 19.9226 33.1878 21.0438 34.5719 21.0438H38.7472V61.4613H34.5719C33.1881 61.4613 32.0666 62.5826 32.0666 63.9666C32.0666 65.3507 33.1878 66.472 34.5719 66.472H47.9331C49.3169 66.472 50.4384 65.3507 50.4384 63.9666C50.4384 62.5826 49.3172 61.4613 47.9331 61.4613Z" fill="white"/>
</g>
<defs>
<clipPath id="clip0_4713_289">
<rect width="160" height="160" fill="white"/>
</clipPath>
</defs>
</svg>
