<svg width="1280" height="358" viewBox="0 0 1280 358" fill="none" xmlns="http://www.w3.org/2000/svg">
<path d="M193.792 163.992C294.332 135.048 355.857 217.197 468.902 200.537C581.947 183.877 676.485 44.4857 791.531 11.3656C906.577 -21.7546 1092.15 25.8802 1127.67 47.91C1163.18 69.9397 1244.21 113.475 1244.21 207.792C1244.21 302.109 1190.69 331.667 1091.65 331.667C992.612 331.667 947.094 275.775 791.531 275.775C635.969 275.775 622.464 358 500.415 358C378.366 358 347.354 302.109 234.308 302.109C121.263 302.109 32.2125 376.5 4.21251 330C-23.7875 283.5 93.2518 192.936 193.792 163.992Z" fill="url(#paint0_linear_4002_21)" fill-opacity="0.5"/>
<path d="M1245.18 204.68C1268.08 204.91 1285 208.851 1285 220V358H1123V474H28V345.045C68.5042 350.764 144.095 302.333 235.308 302.333C348.353 302.333 379.366 358.224 501.414 358.225C623.463 358.225 636.969 276 792.531 276C948.093 276 993.612 331.891 1092.65 331.892C1103.3 331.892 1113.42 331.548 1123 330.821V330.597C1202.58 324.563 1245.21 291.971 1245.21 207.792C1245.21 206.748 1245.2 205.711 1245.18 204.68Z" fill="#081319"/>
<path d="M1031.5 328C1017.5 317.5 927.777 292.77 915.5 290C903.223 287.23 849.976 277.499 804 276C758 274.5 721.908 281.479 692.277 291.23C662.646 300.982 624.5 322.5 611.5 330.5L804 328H1031.5Z" fill="url(#paint1_linear_4002_21)"/>
<path d="M401 343C387.5 338 335 319 318.5 314C302 309 265.337 302 235.5 302C205.663 302 159.5 312 151 314.5C142.5 317 66 338 51 345L235.5 349L401 343Z" fill="url(#paint2_linear_4002_21)"/>
<path d="M0 317C0 317 0 324 3.9375 330.5C7.875 337 8.3125 336.5 10.0625 338.5C11.8125 340.5 18.2979 343.699 21.875 344.5C25.4521 345.301 28 345.301 28 345.301V358H0V317Z" fill="#081319"/>
<defs>
<linearGradient id="paint0_linear_4002_21" x1="619.712" y1="117" x2="619.712" y2="358" gradientUnits="userSpaceOnUse">
<stop stop-color="#12DAD1"/>
<stop offset="1" stop-color="#00524F"/>
</linearGradient>
<linearGradient id="paint1_linear_4002_21" x1="793.892" y1="233" x2="798.092" y2="324.405" gradientUnits="userSpaceOnUse">
<stop stop-color="#10C3FF" stop-opacity="0.51"/>
<stop offset="1" stop-color="#1E94BB" stop-opacity="0"/>
</linearGradient>
<linearGradient id="paint2_linear_4002_21" x1="235.5" y1="306.406" x2="235.5" y2="339.453" gradientUnits="userSpaceOnUse">
<stop offset="0.211538" stop-color="#10C3FF" stop-opacity="0.2"/>
<stop offset="1" stop-color="#1E94BB" stop-opacity="0"/>
</linearGradient>
</defs>
</svg>
