<svg width="106" height="106" viewBox="0 0 106 106" fill="none" xmlns="http://www.w3.org/2000/svg">
<g filter="url(#filter0_dd_4562_202)">
<g clip-path="url(#clip0_4562_202)">
<path d="M5 49C5 22.4903 26.4903 1 53 1C79.5097 1 101 22.4903 101 49C101 75.5097 79.5097 97 53 97C26.4903 97 5 75.5097 5 49Z" fill="url(#paint0_linear_4562_202)"/>
<g style="mix-blend-mode:plus-lighter" filter="url(#filter1_f_4562_202)">
<circle cx="35.5" cy="28.9075" r="17.5" fill="#D9D9D9" fill-opacity="0.35"/>
</g>
<g style="mix-blend-mode:plus-lighter">
<circle cx="31" cy="24.4075" r="3" fill="#D9D9D9" fill-opacity="0.35"/>
</g>
<g style="mix-blend-mode:hard-light" filter="url(#filter2_f_4562_202)">
<path d="M79.5 79.4073C85.1237 75.4002 94 56.8822 92 55.9073C86.115 53.0388 81.5498 72.0795 77 75.9075C72.4503 79.7354 71.7556 80.674 68.8347 81.9548C64.851 83.7016 53.5782 88.7172 55 89.4073C57.5592 90.6495 73.4074 83.7486 79.5 79.4073Z" fill="white"/>
</g>
</g>
</g>
<g clip-path="url(#clip1_4562_202)">
<path d="M54.785 51.1659C54.5716 51.2567 54.3897 51.4089 54.2624 51.6034C54.135 51.798 54.0679 52.0261 54.0696 52.259V57.7839C54.0679 57.9385 54.0968 58.0919 54.1543 58.2354C54.2119 58.3788 54.2971 58.5094 54.405 58.6197C54.5125 58.7299 54.641 58.8174 54.7829 58.8769C54.9245 58.9367 55.0763 58.968 55.2299 58.969H66.4846V57.3771H56.0147C55.964 57.3774 55.9137 57.367 55.8671 57.3469C55.7974 57.3156 55.7387 57.2639 55.6989 57.1986C55.6589 57.1332 55.6396 57.0572 55.6436 56.9806V53.0319C55.6446 52.9318 55.6848 52.8362 55.7553 52.7656C55.7899 52.7302 55.8311 52.7021 55.8766 52.6828C55.9221 52.6636 55.9709 52.6535 56.0203 52.6533H66.4857V51.075H55.2321C55.0786 51.0751 54.9266 51.106 54.785 51.1659Z" fill="#594F3E"/>
<path d="M38.556 58.9533H50.9698V57.3771H40.1075V55.7965H50.9698V54.217H40.1075V52.6409H50.9698V51.0603H38.556V58.9533Z" fill="#594F3E"/>
<path d="M23.0411 52.6557H28.4616V58.9534H30.0333V52.6557H35.455V51.0762H23.0411V52.6557Z" fill="#594F3E"/>
<path d="M80.4276 54.217H71.1583V52.6409V51.0603H69.5866V58.9544H71.1583V57.3771V55.7976H80.4276V58.9544H81.9993V51.0603H80.4276V54.217Z" fill="#594F3E"/>
<path d="M23.3729 47.5813C23.5912 47.8027 23.8878 47.9283 24.1979 47.9307H35.4536V46.3389H24.9882C24.9116 46.3391 24.8368 46.3156 24.774 46.2716C24.7112 46.2276 24.6634 46.1651 24.6372 46.0928C24.6194 46.0448 24.6114 45.9936 24.6137 45.9423V41.9947C24.6136 41.9452 24.6232 41.8961 24.6419 41.8503C24.6607 41.8045 24.6882 41.7629 24.723 41.7279C24.7578 41.6928 24.7991 41.665 24.8446 41.646C24.8902 41.627 24.9389 41.6172 24.9882 41.6172H35.4536V40.0366H24.2024C23.9705 40.0381 23.7444 40.109 23.5528 40.2402C23.3613 40.3715 23.213 40.5572 23.127 40.7736C23.0694 40.9163 23.0398 41.0689 23.0398 41.2229V46.7489C23.0399 46.9029 23.0695 47.0555 23.127 47.1982C23.1833 47.3408 23.2669 47.471 23.3729 47.5813Z" fill="#594F3E"/>
<path d="M38.8897 47.5667C38.9974 47.6767 39.1258 47.7642 39.2674 47.8239C39.4091 47.8837 39.5611 47.9146 39.7147 47.9149H49.8067C49.9608 47.914 50.113 47.8826 50.255 47.8224C50.3968 47.7622 50.5255 47.6744 50.6335 47.564C50.7415 47.4537 50.8268 47.323 50.8844 47.1794C50.942 47.0359 50.9709 46.8823 50.9693 46.7275V41.206C50.9709 41.0514 50.942 40.898 50.8844 40.7546C50.8267 40.6113 50.7414 40.4808 50.6333 40.3707C50.5252 40.2606 50.3966 40.1732 50.2546 40.1133C50.1128 40.0534 49.9605 40.0224 49.8067 40.022H39.7147C39.561 40.0229 39.4088 40.0542 39.2672 40.1142C39.1255 40.1742 38.9971 40.2617 38.889 40.3717C38.781 40.4817 38.6957 40.612 38.6379 40.7551C38.58 40.8983 38.5509 41.0515 38.552 41.206V46.7275C38.5493 47.0398 38.6699 47.3404 38.8875 47.5633L38.8897 47.5667ZM40.1294 41.9947C40.1293 41.9452 40.1388 41.8963 40.1575 41.8505C40.1762 41.8048 40.2036 41.7633 40.2383 41.7282C40.273 41.6932 40.3142 41.6653 40.3596 41.6463C40.4049 41.6272 40.4536 41.6173 40.5027 41.6172H49.0365C49.0858 41.6174 49.1347 41.6274 49.1801 41.6467C49.2257 41.666 49.2669 41.6941 49.3015 41.7295C49.3721 41.8005 49.4123 41.8965 49.4132 41.9969V45.9411C49.4156 45.992 49.4075 46.0428 49.3897 46.0905C49.3724 46.1386 49.3454 46.1826 49.3104 46.2197C49.2754 46.2568 49.2332 46.2863 49.1863 46.3062C49.1397 46.3264 49.0894 46.3367 49.0387 46.3366H40.5027C40.4525 46.3373 40.4025 46.3277 40.356 46.3084C40.3095 46.2891 40.2674 46.2604 40.2323 46.2242C40.1971 46.1872 40.17 46.1432 40.1529 46.095C40.1351 46.0473 40.1271 45.9965 40.1294 45.9456V41.9947Z" fill="#594F3E"/>
<path d="M82 41.6026V40.022H69.5862V47.916H82V46.3388H71.1378V44.7593H82V43.1787H71.1378V41.6026H82Z" fill="#594F3E"/>
<path d="M63.9019 47.9112H54.0726V40.0261H63.9019C64.5862 40.0267 65.2421 40.3 65.726 40.7861C66.21 41.2722 66.4822 41.9313 66.4831 42.6189V45.3151C66.4828 46.0031 66.2108 46.6629 65.7269 47.1497C65.243 47.6364 64.5866 47.9103 63.9019 47.9112ZM55.6376 46.3385H63.9019C64.1714 46.3382 64.4297 46.2305 64.6201 46.039C64.8106 45.8476 64.9178 45.588 64.9181 45.3173V42.6212C64.9178 42.3505 64.8106 42.0911 64.6201 41.8998C64.4295 41.7086 64.1713 41.6011 63.9019 41.6011H55.6376V46.3385Z" fill="#594F3E"/>
</g>
<defs>
<filter id="filter0_dd_4562_202" x="0" y="0" width="106" height="106" filterUnits="userSpaceOnUse" color-interpolation-filters="sRGB">
<feFlood flood-opacity="0" result="BackgroundImageFix"/>
<feColorMatrix in="SourceAlpha" type="matrix" values="0 0 0 0 0 0 0 0 0 0 0 0 0 0 0 0 0 0 127 0" result="hardAlpha"/>
<feMorphology radius="1" operator="erode" in="SourceAlpha" result="effect1_dropShadow_4562_202"/>
<feOffset dy="4"/>
<feGaussianBlur stdDeviation="3"/>
<feComposite in2="hardAlpha" operator="out"/>
<feColorMatrix type="matrix" values="0 0 0 0 0 0 0 0 0 0 0 0 0 0 0 0 0 0 0.1 0"/>
<feBlend mode="normal" in2="BackgroundImageFix" result="effect1_dropShadow_4562_202"/>
<feColorMatrix in="SourceAlpha" type="matrix" values="0 0 0 0 0 0 0 0 0 0 0 0 0 0 0 0 0 0 127 0" result="hardAlpha"/>
<feMorphology radius="2" operator="erode" in="SourceAlpha" result="effect2_dropShadow_4562_202"/>
<feOffset dy="2"/>
<feGaussianBlur stdDeviation="2"/>
<feComposite in2="hardAlpha" operator="out"/>
<feColorMatrix type="matrix" values="0 0 0 0 0 0 0 0 0 0 0 0 0 0 0 0 0 0 0.1 0"/>
<feBlend mode="normal" in2="effect1_dropShadow_4562_202" result="effect2_dropShadow_4562_202"/>
<feBlend mode="normal" in="SourceGraphic" in2="effect2_dropShadow_4562_202" result="shape"/>
</filter>
<filter id="filter1_f_4562_202" x="13" y="6.40747" width="45" height="45" filterUnits="userSpaceOnUse" color-interpolation-filters="sRGB">
<feFlood flood-opacity="0" result="BackgroundImageFix"/>
<feBlend mode="normal" in="SourceGraphic" in2="BackgroundImageFix" result="shape"/>
<feGaussianBlur stdDeviation="2.5" result="effect1_foregroundBlur_4562_202"/>
</filter>
<filter id="filter2_f_4562_202" x="47.8768" y="48.6143" width="51.4111" height="47.9404" filterUnits="userSpaceOnUse" color-interpolation-filters="sRGB">
<feFlood flood-opacity="0" result="BackgroundImageFix"/>
<feBlend mode="normal" in="SourceGraphic" in2="BackgroundImageFix" result="shape"/>
<feGaussianBlur stdDeviation="3.5" result="effect1_foregroundBlur_4562_202"/>
</filter>
<linearGradient id="paint0_linear_4562_202" x1="18.12" y1="10.8608" x2="93.96" y2="89.2608" gradientUnits="userSpaceOnUse">
<stop stop-color="#2071DA"/>
<stop offset="1" stop-color="#94FFEB"/>
</linearGradient>
<clipPath id="clip0_4562_202">
<path d="M5 49C5 22.4903 26.4903 1 53 1C79.5097 1 101 22.4903 101 49C101 75.5097 79.5097 97 53 97C26.4903 97 5 75.5097 5 49Z" fill="white"/>
</clipPath>
<clipPath id="clip1_4562_202">
<rect width="59" height="19" fill="white" transform="translate(23 40)"/>
</clipPath>
</defs>
</svg>
