<svg width="106" height="106" viewBox="0 0 106 106" fill="none" xmlns="http://www.w3.org/2000/svg">
<g filter="url(#filter0_dd_4562_233)">
<path d="M5 49C5 22.4903 26.4903 1 53 1C79.5097 1 101 22.4903 101 49C101 75.5097 79.5097 97 53 97C26.4903 97 5 75.5097 5 49Z" fill="url(#paint0_linear_4562_233)"/>
<g style="mix-blend-mode:plus-lighter" filter="url(#filter1_f_4562_233)">
<circle cx="35.5" cy="28.9072" r="17.5" fill="#D9D9D9" fill-opacity="0.35"/>
</g>
<g style="mix-blend-mode:plus-lighter">
<circle cx="31" cy="24.4072" r="3" fill="#D9D9D9" fill-opacity="0.35"/>
</g>
<g style="mix-blend-mode:hard-light" filter="url(#filter2_f_4562_233)">
<path d="M79.5 79.4073C85.1237 75.4002 94 56.8822 92 55.9073C86.115 53.0388 81.5498 72.0795 77 75.9075C72.4503 79.7354 71.7556 80.674 68.8347 81.9548C64.851 83.7016 53.5782 88.7172 55 89.4073C57.5592 90.6495 73.4074 83.7486 79.5 79.4073Z" fill="white"/>
</g>
</g>
<defs>
<filter id="filter0_dd_4562_233" x="0" y="0" width="106" height="106" filterUnits="userSpaceOnUse" color-interpolation-filters="sRGB">
<feFlood flood-opacity="0" result="BackgroundImageFix"/>
<feColorMatrix in="SourceAlpha" type="matrix" values="0 0 0 0 0 0 0 0 0 0 0 0 0 0 0 0 0 0 127 0" result="hardAlpha"/>
<feMorphology radius="1" operator="erode" in="SourceAlpha" result="effect1_dropShadow_4562_233"/>
<feOffset dy="4"/>
<feGaussianBlur stdDeviation="3"/>
<feComposite in2="hardAlpha" operator="out"/>
<feColorMatrix type="matrix" values="0 0 0 0 0 0 0 0 0 0 0 0 0 0 0 0 0 0 0.1 0"/>
<feBlend mode="normal" in2="BackgroundImageFix" result="effect1_dropShadow_4562_233"/>
<feColorMatrix in="SourceAlpha" type="matrix" values="0 0 0 0 0 0 0 0 0 0 0 0 0 0 0 0 0 0 127 0" result="hardAlpha"/>
<feMorphology radius="2" operator="erode" in="SourceAlpha" result="effect2_dropShadow_4562_233"/>
<feOffset dy="2"/>
<feGaussianBlur stdDeviation="2"/>
<feComposite in2="hardAlpha" operator="out"/>
<feColorMatrix type="matrix" values="0 0 0 0 0 0 0 0 0 0 0 0 0 0 0 0 0 0 0.1 0"/>
<feBlend mode="normal" in2="effect1_dropShadow_4562_233" result="effect2_dropShadow_4562_233"/>
<feBlend mode="normal" in="SourceGraphic" in2="effect2_dropShadow_4562_233" result="shape"/>
</filter>
<filter id="filter1_f_4562_233" x="13" y="6.40723" width="45" height="45" filterUnits="userSpaceOnUse" color-interpolation-filters="sRGB">
<feFlood flood-opacity="0" result="BackgroundImageFix"/>
<feBlend mode="normal" in="SourceGraphic" in2="BackgroundImageFix" result="shape"/>
<feGaussianBlur stdDeviation="2.5" result="effect1_foregroundBlur_4562_233"/>
</filter>
<filter id="filter2_f_4562_233" x="47.8768" y="48.6143" width="51.4111" height="47.9404" filterUnits="userSpaceOnUse" color-interpolation-filters="sRGB">
<feFlood flood-opacity="0" result="BackgroundImageFix"/>
<feBlend mode="normal" in="SourceGraphic" in2="BackgroundImageFix" result="shape"/>
<feGaussianBlur stdDeviation="3.5" result="effect1_foregroundBlur_4562_233"/>
</filter>
<linearGradient id="paint0_linear_4562_233" x1="18.12" y1="10.8608" x2="93.96" y2="89.2608" gradientUnits="userSpaceOnUse">
<stop stop-color="#2071DA"/>
<stop offset="1" stop-color="#94FFEB"/>
</linearGradient>
</defs>
</svg>
